<svg width="500" height="150" viewBox="0 0 738 221" fill="none" xmlns="http://www.w3.org/2000/svg">
<g filter="url(#filter0_d_211_14)">
<path d="M10.124 19.536C10.756 19.536 11.344 19.432 11.888 19.224C12.44 19.016 12.948 18.752 13.412 18.432L14.396 19.752C13.844 20.224 13.18 20.596 12.404 20.868C11.628 21.14 10.868 21.276 10.124 21.276C8.868 21.276 7.796 21.008 6.908 20.472C6.028 19.928 5.356 19.168 4.892 18.192C4.428 17.208 4.196 16.056 4.196 14.736C4.196 13.472 4.428 12.34 4.892 11.34C5.364 10.332 6.04 9.54 6.92 8.964C7.808 8.388 8.884 8.1 10.148 8.1C10.956 8.1 11.712 8.224 12.416 8.472C13.128 8.712 13.78 9.076 14.372 9.564L13.388 10.908C12.852 10.532 12.312 10.252 11.768 10.068C11.232 9.876 10.684 9.78 10.124 9.78C9.036 9.78 8.14 10.188 7.436 11.004C6.732 11.82 6.38 13.064 6.38 14.736C6.38 15.856 6.54 16.772 6.86 17.484C7.188 18.188 7.632 18.708 8.192 19.044C8.76 19.372 9.404 19.536 10.124 19.536ZM23.6146 8.1C24.8066 8.1 25.8026 8.372 26.6026 8.916C27.4106 9.452 28.0146 10.212 28.4146 11.196C28.8226 12.18 29.0266 13.34 29.0266 14.676C29.0266 15.964 28.8186 17.104 28.4026 18.096C27.9866 19.088 27.3746 19.868 26.5666 20.436C25.7666 20.996 24.7746 21.276 23.5906 21.276C22.4066 21.276 21.4106 21.004 20.6026 20.46C19.7946 19.916 19.1826 19.152 18.7666 18.168C18.3586 17.176 18.1546 16.02 18.1546 14.7C18.1546 13.396 18.3626 12.248 18.7786 11.256C19.1946 10.264 19.8066 9.492 20.6146 8.94C21.4306 8.38 22.4306 8.1 23.6146 8.1ZM23.6146 9.744C22.5266 9.744 21.7026 10.148 21.1426 10.956C20.5906 11.756 20.3146 13.004 20.3146 14.7C20.3146 16.364 20.5866 17.6 21.1306 18.408C21.6826 19.216 22.5026 19.62 23.5906 19.62C24.6786 19.62 25.4946 19.216 26.0386 18.408C26.5906 17.6 26.8666 16.356 26.8666 14.676C26.8666 12.996 26.5946 11.756 26.0506 10.956C25.5066 10.148 24.6946 9.744 23.6146 9.744ZM33.1933 21V8.364H34.9093L35.0653 10.116C35.5773 9.468 36.2173 8.972 36.9853 8.628C37.7613 8.276 38.5133 8.1 39.2413 8.1C40.4813 8.1 41.3813 8.428 41.9413 9.084C42.5093 9.74 42.7933 10.652 42.7933 11.82V21H40.7773V13.308C40.7773 12.444 40.7293 11.748 40.6333 11.22C40.5373 10.684 40.3373 10.296 40.0333 10.056C39.7293 9.808 39.2573 9.684 38.6173 9.684C38.1213 9.684 37.6533 9.792 37.2133 10.008C36.7813 10.224 36.3933 10.496 36.0493 10.824C35.7133 11.144 35.4333 11.468 35.2093 11.796V21H33.1933ZM51.8799 19.608C52.8479 19.608 53.6119 19.428 54.1719 19.068C54.7399 18.7 55.0239 18.212 55.0239 17.604C55.0239 17.22 54.9519 16.888 54.8079 16.608C54.6719 16.328 54.3879 16.076 53.9559 15.852C53.5239 15.628 52.8599 15.404 51.9639 15.18C51.0919 14.964 50.3319 14.716 49.6839 14.436C49.0439 14.148 48.5439 13.776 48.1839 13.32C47.8319 12.864 47.6559 12.272 47.6559 11.544C47.6559 10.832 47.8559 10.22 48.2559 9.708C48.6639 9.188 49.2279 8.792 49.9479 8.52C50.6679 8.24 51.5039 8.1 52.4559 8.1C53.4719 8.1 54.3559 8.236 55.1079 8.508C55.8679 8.772 56.5119 9.1 57.0399 9.492L56.1519 10.86C55.6719 10.532 55.1439 10.264 54.5679 10.056C53.9919 9.84 53.2959 9.732 52.4799 9.732C51.4879 9.732 50.7839 9.888 50.3679 10.2C49.9519 10.504 49.7439 10.9 49.7439 11.388C49.7439 11.756 49.8439 12.064 50.0439 12.312C50.2519 12.552 50.5999 12.772 51.0879 12.972C51.5759 13.164 52.2479 13.376 53.1039 13.608C53.9279 13.824 54.6439 14.084 55.2519 14.388C55.8679 14.692 56.3479 15.092 56.6919 15.588C57.0359 16.084 57.2079 16.724 57.2079 17.508C57.2079 18.404 56.9519 19.132 56.4399 19.692C55.9279 20.244 55.2639 20.648 54.4479 20.904C53.6399 21.152 52.7839 21.276 51.8799 21.276C50.7359 21.276 49.7599 21.112 48.9519 20.784C48.1519 20.448 47.4799 20.044 46.9359 19.572L48.0879 18.24C48.5839 18.648 49.1519 18.98 49.7919 19.236C50.4399 19.484 51.1359 19.608 51.8799 19.608ZM72.0065 20.364C71.5745 20.652 71.0505 20.876 70.4345 21.036C69.8185 21.196 69.2145 21.276 68.6225 21.276C67.2625 21.276 66.2145 20.92 65.4785 20.208C64.7425 19.496 64.3745 18.58 64.3745 17.46V9.924H61.4705V8.364H64.3745V5.496L66.3905 5.256V8.364H70.7585L70.5185 9.924H66.3905V17.436C66.3905 18.14 66.5745 18.676 66.9425 19.044C67.3185 19.412 67.9385 19.596 68.8025 19.596C69.2745 19.596 69.7105 19.54 70.1105 19.428C70.5105 19.316 70.8825 19.172 71.2265 18.996L72.0065 20.364ZM101.076 4.476L102.012 21H100.008L99.4918 12.372C99.4678 11.788 99.4438 11.196 99.4198 10.596C99.3958 9.996 99.3798 9.42 99.3718 8.868C99.3638 8.316 99.3598 7.824 99.3598 7.392C99.3598 6.96 99.3598 6.624 99.3598 6.384L96.5758 18.036H94.4878L91.4998 6.384C91.5078 6.616 91.5158 6.96 91.5238 7.416C91.5318 7.864 91.5358 8.372 91.5358 8.94C91.5438 9.508 91.5398 10.092 91.5238 10.692C91.5158 11.284 91.4998 11.836 91.4758 12.348L91.0318 21H89.0758L90.0118 4.476H92.9158L95.5918 15.792L98.1478 4.476H101.076ZM113.054 21V13.164H106.814V21H104.738V4.476H106.814V11.46H113.054V4.476H115.13V21H113.054ZM124.649 21.276C123.345 21.276 122.209 20.96 121.241 20.328C120.281 19.696 119.537 18.748 119.009 17.484C118.481 16.22 118.217 14.636 118.217 12.732C118.217 11.308 118.405 10.064 118.781 9C119.165 7.936 119.681 7.048 120.329 6.336C120.985 5.624 121.725 5.092 122.549 4.74C123.381 4.388 124.241 4.212 125.129 4.212C126.209 4.212 127.105 4.368 127.817 4.68C128.529 4.984 129.209 5.432 129.857 6.024L128.597 7.332C128.093 6.86 127.561 6.512 127.001 6.288C126.449 6.064 125.829 5.952 125.141 5.952C124.541 5.952 123.961 6.068 123.401 6.3C122.841 6.532 122.337 6.912 121.889 7.44C121.449 7.96 121.097 8.652 120.833 9.516C120.577 10.38 120.449 11.452 120.449 12.732C120.449 14.324 120.613 15.62 120.941 16.62C121.277 17.62 121.769 18.356 122.417 18.828C123.073 19.292 123.881 19.524 124.841 19.524C125.417 19.524 125.961 19.456 126.473 19.32C126.993 19.184 127.497 18.988 127.985 18.732V13.692H124.733L124.481 11.964H130.049V19.836C129.305 20.236 128.513 20.576 127.673 20.856C126.833 21.136 125.825 21.276 124.649 21.276ZM142.556 12.66C142.556 11.22 142.404 10.068 142.1 9.204C141.796 8.34 141.396 7.692 140.9 7.26C140.404 6.828 139.86 6.54 139.268 6.396C138.684 6.252 138.108 6.18 137.54 6.18H135.596V19.332H137.564C138.156 19.332 138.744 19.24 139.328 19.056C139.92 18.864 140.46 18.528 140.948 18.048C141.436 17.56 141.824 16.884 142.112 16.02C142.408 15.148 142.556 14.028 142.556 12.66ZM144.776 12.66C144.776 14.036 144.628 15.212 144.332 16.188C144.044 17.156 143.648 17.956 143.144 18.588C142.64 19.22 142.064 19.712 141.416 20.064C140.776 20.408 140.1 20.652 139.388 20.796C138.684 20.932 137.992 21 137.312 21H133.52V4.476H137.048C138.016 4.476 138.956 4.584 139.868 4.8C140.788 5.016 141.616 5.416 142.352 6C143.096 6.576 143.684 7.4 144.116 8.472C144.556 9.544 144.776 10.94 144.776 12.66ZM149.902 15.396C149.942 16.372 150.13 17.172 150.466 17.796C150.802 18.412 151.246 18.868 151.798 19.164C152.35 19.452 152.95 19.596 153.598 19.596C154.246 19.596 154.83 19.5 155.35 19.308C155.878 19.116 156.418 18.832 156.97 18.456L157.918 19.788C157.326 20.252 156.65 20.616 155.89 20.88C155.138 21.144 154.366 21.276 153.574 21.276C152.35 21.276 151.306 21 150.442 20.448C149.578 19.896 148.918 19.128 148.462 18.144C148.014 17.152 147.79 16.004 147.79 14.7C147.79 13.42 148.018 12.284 148.474 11.292C148.93 10.3 149.57 9.52 150.394 8.952C151.218 8.384 152.19 8.1 153.31 8.1C154.374 8.1 155.29 8.352 156.058 8.856C156.826 9.352 157.414 10.064 157.822 10.992C158.238 11.912 158.446 13.012 158.446 14.292C158.446 14.508 158.442 14.712 158.434 14.904C158.426 15.088 158.414 15.252 158.398 15.396H149.902ZM153.334 9.756C152.398 9.756 151.614 10.088 150.982 10.752C150.358 11.416 150.002 12.444 149.914 13.836H156.502C156.478 12.484 156.182 11.468 155.614 10.788C155.046 10.1 154.286 9.756 153.334 9.756ZM167.005 19.608C167.973 19.608 168.737 19.428 169.297 19.068C169.865 18.7 170.149 18.212 170.149 17.604C170.149 17.22 170.077 16.888 169.933 16.608C169.797 16.328 169.513 16.076 169.081 15.852C168.649 15.628 167.985 15.404 167.089 15.18C166.217 14.964 165.457 14.716 164.809 14.436C164.169 14.148 163.669 13.776 163.309 13.32C162.957 12.864 162.781 12.272 162.781 11.544C162.781 10.832 162.981 10.22 163.381 9.708C163.789 9.188 164.353 8.792 165.073 8.52C165.793 8.24 166.629 8.1 167.581 8.1C168.597 8.1 169.481 8.236 170.233 8.508C170.993 8.772 171.637 9.1 172.165 9.492L171.277 10.86C170.797 10.532 170.269 10.264 169.693 10.056C169.117 9.84 168.421 9.732 167.605 9.732C166.613 9.732 165.909 9.888 165.493 10.2C165.077 10.504 164.869 10.9 164.869 11.388C164.869 11.756 164.969 12.064 165.169 12.312C165.377 12.552 165.725 12.772 166.213 12.972C166.701 13.164 167.373 13.376 168.229 13.608C169.053 13.824 169.769 14.084 170.377 14.388C170.993 14.692 171.473 15.092 171.817 15.588C172.161 16.084 172.333 16.724 172.333 17.508C172.333 18.404 172.077 19.132 171.565 19.692C171.053 20.244 170.389 20.648 169.573 20.904C168.765 21.152 167.909 21.276 167.005 21.276C165.861 21.276 164.885 21.112 164.077 20.784C163.277 20.448 162.605 20.044 162.061 19.572L163.213 18.24C163.709 18.648 164.277 18.98 164.917 19.236C165.565 19.484 166.261 19.608 167.005 19.608ZM183.496 8.364V19.404H187.06V21H177.58V19.404H181.48V9.96H177.7V8.364H183.496ZM181.888 2.448C182.336 2.448 182.692 2.584 182.956 2.856C183.228 3.128 183.364 3.46 183.364 3.852C183.364 4.26 183.228 4.604 182.956 4.884C182.692 5.156 182.336 5.292 181.888 5.292C181.464 5.292 181.116 5.156 180.844 4.884C180.572 4.604 180.436 4.26 180.436 3.852C180.436 3.46 180.572 3.128 180.844 2.856C181.116 2.584 181.464 2.448 181.888 2.448ZM201.762 7.02L202.386 8.916C201.85 9.084 201.278 9.188 200.67 9.228C200.062 9.268 199.402 9.288 198.69 9.288C199.418 9.624 199.966 10.06 200.334 10.596C200.702 11.124 200.886 11.748 200.886 12.468C200.886 13.3 200.698 14.04 200.322 14.688C199.946 15.336 199.402 15.844 198.69 16.212C197.986 16.58 197.134 16.764 196.134 16.764C195.71 16.764 195.354 16.744 195.066 16.704C194.786 16.664 194.514 16.604 194.25 16.524C194.058 16.652 193.898 16.828 193.77 17.052C193.65 17.276 193.59 17.508 193.59 17.748C193.59 18.052 193.71 18.304 193.95 18.504C194.19 18.704 194.634 18.804 195.282 18.804H197.562C198.41 18.804 199.17 18.956 199.842 19.26C200.522 19.564 201.054 19.972 201.438 20.484C201.83 20.996 202.026 21.58 202.026 22.236C202.026 23.476 201.498 24.428 200.442 25.092C199.394 25.756 197.91 26.088 195.99 26.088C194.646 26.088 193.586 25.948 192.81 25.668C192.034 25.396 191.478 24.976 191.142 24.408C190.814 23.848 190.65 23.14 190.65 22.284H192.474C192.474 22.772 192.57 23.176 192.762 23.496C192.954 23.816 193.302 24.052 193.806 24.204C194.31 24.364 195.034 24.444 195.978 24.444C196.906 24.444 197.662 24.364 198.246 24.204C198.838 24.052 199.274 23.82 199.554 23.508C199.842 23.204 199.986 22.824 199.986 22.368C199.986 21.768 199.714 21.316 199.17 21.012C198.626 20.708 197.946 20.556 197.13 20.556H194.874C193.786 20.556 192.982 20.316 192.462 19.836C191.95 19.356 191.694 18.804 191.694 18.18C191.694 17.772 191.81 17.376 192.042 16.992C192.282 16.608 192.63 16.268 193.086 15.972C192.358 15.588 191.822 15.112 191.478 14.544C191.134 13.976 190.962 13.288 190.962 12.48C190.962 11.624 191.174 10.868 191.598 10.212C192.022 9.548 192.614 9.028 193.374 8.652C194.134 8.276 195.01 8.088 196.002 8.088C197.066 8.08 197.93 8.036 198.594 7.956C199.258 7.868 199.826 7.744 200.298 7.584C200.778 7.424 201.266 7.236 201.762 7.02ZM196.002 9.564C194.986 9.564 194.234 9.84 193.746 10.392C193.266 10.936 193.026 11.632 193.026 12.48C193.026 13.336 193.274 14.04 193.77 14.592C194.266 15.144 195.026 15.42 196.05 15.42C196.946 15.42 197.626 15.16 198.09 14.64C198.562 14.12 198.798 13.396 198.798 12.468C198.798 11.516 198.562 10.796 198.09 10.308C197.626 9.812 196.93 9.564 196.002 9.564ZM205.881 21V8.364H207.597L207.753 10.116C208.265 9.468 208.905 8.972 209.673 8.628C210.449 8.276 211.201 8.1 211.929 8.1C213.169 8.1 214.069 8.428 214.629 9.084C215.197 9.74 215.481 10.652 215.481 11.82V21H213.465V13.308C213.465 12.444 213.417 11.748 213.321 11.22C213.225 10.684 213.025 10.296 212.721 10.056C212.417 9.808 211.945 9.684 211.305 9.684C210.809 9.684 210.341 9.792 209.901 10.008C209.469 10.224 209.081 10.496 208.737 10.824C208.401 11.144 208.121 11.468 207.897 11.796V21H205.881ZM224.567 19.608C225.535 19.608 226.299 19.428 226.859 19.068C227.427 18.7 227.711 18.212 227.711 17.604C227.711 17.22 227.639 16.888 227.495 16.608C227.359 16.328 227.075 16.076 226.643 15.852C226.211 15.628 225.547 15.404 224.651 15.18C223.779 14.964 223.019 14.716 222.371 14.436C221.731 14.148 221.231 13.776 220.871 13.32C220.519 12.864 220.343 12.272 220.343 11.544C220.343 10.832 220.543 10.22 220.943 9.708C221.351 9.188 221.915 8.792 222.635 8.52C223.355 8.24 224.191 8.1 225.143 8.1C226.159 8.1 227.043 8.236 227.795 8.508C228.555 8.772 229.199 9.1 229.727 9.492L228.839 10.86C228.359 10.532 227.831 10.264 227.255 10.056C226.679 9.84 225.983 9.732 225.167 9.732C224.175 9.732 223.471 9.888 223.055 10.2C222.639 10.504 222.431 10.9 222.431 11.388C222.431 11.756 222.531 12.064 222.731 12.312C222.939 12.552 223.287 12.772 223.775 12.972C224.263 13.164 224.935 13.376 225.791 13.608C226.615 13.824 227.331 14.084 227.939 14.388C228.555 14.692 229.035 15.092 229.379 15.588C229.723 16.084 229.895 16.724 229.895 17.508C229.895 18.404 229.639 19.132 229.127 19.692C228.615 20.244 227.951 20.648 227.135 20.904C226.327 21.152 225.471 21.276 224.567 21.276C223.423 21.276 222.447 21.112 221.639 20.784C220.839 20.448 220.167 20.044 219.623 19.572L220.775 18.24C221.271 18.648 221.839 18.98 222.479 19.236C223.127 19.484 223.823 19.608 224.567 19.608ZM258.509 10.392V12.132H249.173V10.392H258.509ZM258.509 14.94V16.692H249.173V14.94H258.509ZM280.522 12.6C280.522 13.848 280.63 14.968 280.846 15.96C281.062 16.944 281.382 17.848 281.806 18.672C282.23 19.488 282.762 20.264 283.402 21C284.05 21.744 284.802 22.496 285.658 23.256L284.602 24.36C283.306 23.296 282.194 22.208 281.266 21.096C280.346 19.984 279.638 18.744 279.142 17.376C278.654 16.008 278.41 14.416 278.41 12.6C278.41 10.776 278.654 9.18 279.142 7.812C279.638 6.444 280.346 5.204 281.266 4.092C282.194 2.98 283.306 1.896 284.602 0.839999L285.658 1.944C284.794 2.712 284.038 3.468 283.39 4.212C282.75 4.948 282.218 5.724 281.794 6.54C281.37 7.348 281.05 8.248 280.834 9.24C280.626 10.224 280.522 11.344 280.522 12.6ZM297.877 8.1C298.997 8.1 299.889 8.372 300.553 8.916C301.225 9.46 301.709 10.228 302.005 11.22C302.301 12.204 302.449 13.356 302.449 14.676C302.449 15.948 302.269 17.084 301.909 18.084C301.557 19.076 301.021 19.856 300.301 20.424C299.581 20.992 298.673 21.276 297.577 21.276C296.193 21.276 295.081 20.788 294.241 19.812V25.836L292.225 26.088V8.364H293.941L294.109 10.128C294.573 9.48 295.125 8.98 295.765 8.628C296.413 8.276 297.117 8.1 297.877 8.1ZM297.397 9.72C296.701 9.72 296.085 9.932 295.549 10.356C295.021 10.772 294.585 11.236 294.241 11.748V18.012C294.569 18.5 294.981 18.888 295.477 19.176C295.981 19.456 296.533 19.596 297.133 19.596C298.181 19.596 298.969 19.196 299.497 18.396C300.025 17.596 300.289 16.352 300.289 14.664C300.289 13.56 300.185 12.644 299.977 11.916C299.769 11.18 299.453 10.632 299.029 10.272C298.605 9.904 298.061 9.72 297.397 9.72ZM306.735 21V19.452H308.703V9.912H306.735V8.364H310.239L310.611 11.352C311.099 10.312 311.691 9.508 312.387 8.94C313.083 8.372 314.003 8.088 315.147 8.088C315.499 8.088 315.811 8.116 316.083 8.172C316.363 8.22 316.647 8.284 316.935 8.364L316.347 10.164C316.083 10.092 315.843 10.04 315.627 10.008C315.411 9.968 315.163 9.948 314.883 9.948C313.915 9.948 313.083 10.292 312.387 10.98C311.691 11.668 311.135 12.708 310.719 14.1V19.452H313.287V21H306.735ZM314.991 12.636V9.888L315.195 8.364H316.935L316.647 12.636H314.991ZM325.818 8.1C327.01 8.1 328.006 8.372 328.806 8.916C329.614 9.452 330.218 10.212 330.618 11.196C331.026 12.18 331.23 13.34 331.23 14.676C331.23 15.964 331.022 17.104 330.606 18.096C330.19 19.088 329.578 19.868 328.77 20.436C327.97 20.996 326.978 21.276 325.794 21.276C324.61 21.276 323.614 21.004 322.806 20.46C321.998 19.916 321.386 19.152 320.97 18.168C320.562 17.176 320.358 16.02 320.358 14.7C320.358 13.396 320.566 12.248 320.982 11.256C321.398 10.264 322.01 9.492 322.818 8.94C323.634 8.38 324.634 8.1 325.818 8.1ZM325.818 9.744C324.73 9.744 323.906 10.148 323.346 10.956C322.794 11.756 322.518 13.004 322.518 14.7C322.518 16.364 322.79 17.6 323.334 18.408C323.886 19.216 324.706 19.62 325.794 19.62C326.882 19.62 327.698 19.216 328.242 18.408C328.794 17.6 329.07 16.356 329.07 14.676C329.07 12.996 328.798 11.756 328.254 10.956C327.71 10.148 326.898 9.744 325.818 9.744ZM337.412 10.008C337.876 9.4 338.408 8.932 339.008 8.604C339.616 8.268 340.284 8.1 341.012 8.1C342.14 8.1 343.052 8.372 343.748 8.916C344.444 9.46 344.952 10.228 345.272 11.22C345.592 12.204 345.752 13.356 345.752 14.676C345.752 15.948 345.56 17.084 345.176 18.084C344.792 19.076 344.228 19.856 343.484 20.424C342.748 20.992 341.836 21.276 340.748 21.276C339.284 21.276 338.136 20.748 337.304 19.692L337.16 21H335.396V3.276L337.412 3.024V10.008ZM340.268 19.644C341.324 19.644 342.136 19.236 342.704 18.42C343.272 17.604 343.556 16.352 343.556 14.664C343.556 13.56 343.444 12.644 343.22 11.916C342.996 11.18 342.66 10.632 342.212 10.272C341.772 9.904 341.228 9.72 340.58 9.72C339.876 9.72 339.256 9.932 338.72 10.356C338.192 10.772 337.756 11.236 337.412 11.748V18.012C337.74 18.508 338.152 18.904 338.648 19.2C339.152 19.496 339.692 19.644 340.268 19.644ZM354.707 3.276V17.88C354.707 18.504 354.899 18.948 355.283 19.212C355.675 19.468 356.179 19.596 356.795 19.596C357.179 19.596 357.543 19.556 357.887 19.476C358.231 19.396 358.575 19.288 358.919 19.152L359.459 20.628C359.115 20.796 358.687 20.944 358.175 21.072C357.671 21.208 357.099 21.276 356.459 21.276C355.339 21.276 354.431 20.968 353.735 20.352C353.039 19.728 352.691 18.868 352.691 17.772V4.872H348.815V3.276H354.707ZM365.762 15.396C365.802 16.372 365.99 17.172 366.326 17.796C366.662 18.412 367.106 18.868 367.658 19.164C368.21 19.452 368.81 19.596 369.458 19.596C370.106 19.596 370.69 19.5 371.21 19.308C371.738 19.116 372.278 18.832 372.83 18.456L373.778 19.788C373.186 20.252 372.51 20.616 371.75 20.88C370.998 21.144 370.226 21.276 369.434 21.276C368.21 21.276 367.166 21 366.302 20.448C365.438 19.896 364.778 19.128 364.322 18.144C363.874 17.152 363.65 16.004 363.65 14.7C363.65 13.42 363.878 12.284 364.334 11.292C364.79 10.3 365.43 9.52 366.254 8.952C367.078 8.384 368.05 8.1 369.17 8.1C370.234 8.1 371.15 8.352 371.918 8.856C372.686 9.352 373.274 10.064 373.682 10.992C374.098 11.912 374.306 13.012 374.306 14.292C374.306 14.508 374.302 14.712 374.294 14.904C374.286 15.088 374.274 15.252 374.258 15.396H365.762ZM369.194 9.756C368.258 9.756 367.474 10.088 366.842 10.752C366.218 11.416 365.862 12.444 365.774 13.836H372.362C372.338 12.484 372.042 11.468 371.474 10.788C370.906 10.1 370.146 9.756 369.194 9.756ZM386.896 8.1C387.304 8.1 387.692 8.188 388.06 8.364C388.436 8.54 388.744 8.88 388.984 9.384C389.224 9.888 389.344 10.624 389.344 11.592V21H387.472V11.916C387.472 11.124 387.424 10.552 387.328 10.2C387.232 9.848 386.956 9.672 386.5 9.672C386.124 9.672 385.748 9.792 385.372 10.032C385.004 10.264 384.644 10.648 384.292 11.184V21H382.408V11.916C382.408 11.124 382.36 10.552 382.264 10.2C382.168 9.848 381.892 9.672 381.436 9.672C381.044 9.672 380.664 9.792 380.296 10.032C379.936 10.264 379.58 10.648 379.228 11.184V21H377.368V8.364H378.952L379.072 9.828C379.416 9.34 379.8 8.932 380.224 8.604C380.656 8.268 381.188 8.1 381.82 8.1C382.3 8.1 382.752 8.216 383.176 8.448C383.6 8.672 383.912 9.112 384.112 9.768C384.456 9.272 384.844 8.872 385.276 8.568C385.708 8.256 386.248 8.1 386.896 8.1ZM399.847 12.6C399.847 11.344 399.739 10.224 399.523 9.24C399.315 8.248 398.999 7.348 398.575 6.54C398.151 5.724 397.615 4.948 396.967 4.212C396.327 3.468 395.575 2.712 394.711 1.944L395.767 0.839999C397.071 1.896 398.183 2.98 399.103 4.092C400.023 5.204 400.727 6.444 401.215 7.812C401.711 9.18 401.959 10.776 401.959 12.6C401.959 14.416 401.711 16.008 401.215 17.376C400.727 18.744 400.023 19.984 399.103 21.096C398.183 22.208 397.071 23.296 395.767 24.36L394.711 23.256C395.567 22.496 396.315 21.744 396.955 21C397.603 20.264 398.139 19.488 398.563 18.672C398.987 17.848 399.307 16.944 399.523 15.96C399.739 14.968 399.847 13.848 399.847 12.6ZM422.316 12.084V10.332H433.968V12.084H422.316ZM422.316 16.644V14.892H433.968V16.644H422.316ZM433.479 12.084V10.332H441.879V12.084H433.479ZM433.479 16.644V14.892H441.879V16.644H433.479ZM438.651 6.18L445.179 13.488L438.651 20.796L437.163 19.524L438.663 17.892C438.847 17.676 439.047 17.464 439.263 17.256C439.487 17.048 439.779 16.844 440.139 16.644L441.375 14.892L442.659 13.488L441.375 12.084L440.139 10.332C439.779 10.132 439.487 9.928 439.263 9.72C439.047 9.504 438.847 9.292 438.663 9.084L437.163 7.452L438.651 6.18ZM473.336 0.947999V2.532C472.752 2.532 472.22 2.592 471.74 2.712C471.268 2.824 470.9 3.02 470.636 3.3C470.38 3.58 470.272 3.964 470.312 4.452L470.816 9.372C470.888 10.044 470.848 10.6 470.696 11.04C470.544 11.48 470.288 11.824 469.928 12.072C469.576 12.32 469.124 12.496 468.572 12.6C469.132 12.696 469.592 12.864 469.952 13.104C470.312 13.336 470.564 13.672 470.708 14.112C470.852 14.544 470.888 15.116 470.816 15.828L470.312 20.748C470.272 21.244 470.38 21.632 470.636 21.912C470.892 22.192 471.26 22.388 471.74 22.5C472.22 22.612 472.752 22.668 473.336 22.668V24.252C472.664 24.252 472.02 24.192 471.404 24.072C470.788 23.96 470.244 23.764 469.772 23.484C469.3 23.204 468.944 22.82 468.704 22.332C468.464 21.852 468.384 21.244 468.464 20.508L468.944 15.948C469.008 15.396 468.956 14.932 468.788 14.556C468.628 14.18 468.276 13.896 467.732 13.704C467.196 13.504 466.392 13.404 465.32 13.404V11.796C466.392 11.796 467.196 11.7 467.732 11.508C468.276 11.316 468.628 11.032 468.788 10.656C468.956 10.28 469.008 9.82 468.944 9.276L468.464 4.692C468.384 3.956 468.464 3.348 468.704 2.868C468.944 2.38 469.296 1.996 469.76 1.716C470.232 1.436 470.776 1.24 471.392 1.128C472.016 1.008 472.664 0.947999 473.336 0.947999ZM39.5893 39.364V50.404H43.1533V52H33.6733V50.404H37.5733V40.96H33.7933V39.364H39.5893ZM37.9813 33.448C38.4293 33.448 38.7853 33.584 39.0493 33.856C39.3213 34.128 39.4573 34.46 39.4573 34.852C39.4573 35.26 39.3213 35.604 39.0493 35.884C38.7853 36.156 38.4293 36.292 37.9813 36.292C37.5573 36.292 37.2093 36.156 36.9373 35.884C36.6653 35.604 36.5293 35.26 36.5293 34.852C36.5293 34.46 36.6653 34.128 36.9373 33.856C37.2093 33.584 37.5573 33.448 37.9813 33.448ZM55.0479 34.024C55.7279 34.024 56.3439 34.084 56.8959 34.204C57.4479 34.324 57.9719 34.492 58.4679 34.708L57.8199 36.208C57.4119 36.032 56.9799 35.9 56.5239 35.812C56.0679 35.724 55.5959 35.68 55.1079 35.68C54.2279 35.68 53.5639 35.852 53.1159 36.196C52.6759 36.54 52.4559 37.068 52.4559 37.78V40.348H56.7399L56.5239 41.932H52.4559V52H50.4399V41.932H47.4279V40.348H50.4399V37.828C50.4399 37.044 50.6399 36.368 51.0399 35.8C51.4479 35.232 51.9999 34.796 52.6959 34.492C53.3919 34.18 54.1759 34.024 55.0479 34.024ZM79.0531 43.6C79.0531 44.848 79.1611 45.968 79.3771 46.96C79.5931 47.944 79.9131 48.848 80.3371 49.672C80.7611 50.488 81.2931 51.264 81.9331 52C82.5811 52.744 83.3331 53.496 84.1891 54.256L83.1331 55.36C81.8371 54.296 80.7251 53.208 79.7971 52.096C78.8771 50.984 78.1691 49.744 77.6731 48.376C77.1851 47.008 76.9411 45.416 76.9411 43.6C76.9411 41.776 77.1851 40.18 77.6731 38.812C78.1691 37.444 78.8771 36.204 79.7971 35.092C80.7251 33.98 81.8371 32.896 83.1331 31.84L84.1891 32.944C83.3251 33.712 82.5691 34.468 81.9211 35.212C81.2811 35.948 80.7491 36.724 80.3251 37.54C79.9011 38.348 79.5811 39.248 79.3651 40.24C79.1571 41.224 79.0531 42.344 79.0531 43.6ZM96.4078 39.1C97.5278 39.1 98.4198 39.372 99.0838 39.916C99.7558 40.46 100.24 41.228 100.536 42.22C100.832 43.204 100.98 44.356 100.98 45.676C100.98 46.948 100.8 48.084 100.44 49.084C100.088 50.076 99.5518 50.856 98.8318 51.424C98.1118 51.992 97.2038 52.276 96.1078 52.276C94.7238 52.276 93.6118 51.788 92.7718 50.812V56.836L90.7558 57.088V39.364H92.4718L92.6398 41.128C93.1038 40.48 93.6558 39.98 94.2958 39.628C94.9438 39.276 95.6478 39.1 96.4078 39.1ZM95.9278 40.72C95.2318 40.72 94.6158 40.932 94.0798 41.356C93.5518 41.772 93.1158 42.236 92.7718 42.748V49.012C93.0998 49.5 93.5118 49.888 94.0078 50.176C94.5118 50.456 95.0638 50.596 95.6638 50.596C96.7118 50.596 97.4998 50.196 98.0278 49.396C98.5558 48.596 98.8198 47.352 98.8198 45.664C98.8198 44.56 98.7158 43.644 98.5078 42.916C98.2998 42.18 97.9838 41.632 97.5598 41.272C97.1358 40.904 96.5918 40.72 95.9278 40.72ZM105.266 52V50.452H107.234V40.912H105.266V39.364H108.77L109.142 42.352C109.63 41.312 110.222 40.508 110.918 39.94C111.614 39.372 112.534 39.088 113.678 39.088C114.03 39.088 114.342 39.116 114.614 39.172C114.894 39.22 115.178 39.284 115.466 39.364L114.878 41.164C114.614 41.092 114.374 41.04 114.158 41.008C113.942 40.968 113.694 40.948 113.414 40.948C112.446 40.948 111.614 41.292 110.918 41.98C110.222 42.668 109.666 43.708 109.25 45.1V50.452H111.818V52H105.266ZM113.522 43.636V40.888L113.726 39.364H115.466L115.178 43.636H113.522ZM124.349 39.1C125.541 39.1 126.537 39.372 127.337 39.916C128.145 40.452 128.749 41.212 129.149 42.196C129.557 43.18 129.761 44.34 129.761 45.676C129.761 46.964 129.553 48.104 129.137 49.096C128.721 50.088 128.109 50.868 127.301 51.436C126.501 51.996 125.509 52.276 124.325 52.276C123.141 52.276 122.145 52.004 121.337 51.46C120.529 50.916 119.917 50.152 119.501 49.168C119.093 48.176 118.889 47.02 118.889 45.7C118.889 44.396 119.097 43.248 119.513 42.256C119.929 41.264 120.541 40.492 121.349 39.94C122.165 39.38 123.165 39.1 124.349 39.1ZM124.349 40.744C123.261 40.744 122.437 41.148 121.877 41.956C121.325 42.756 121.049 44.004 121.049 45.7C121.049 47.364 121.321 48.6 121.865 49.408C122.417 50.216 123.237 50.62 124.325 50.62C125.413 50.62 126.229 50.216 126.773 49.408C127.325 48.6 127.601 47.356 127.601 45.676C127.601 43.996 127.329 42.756 126.785 41.956C126.241 41.148 125.429 40.744 124.349 40.744ZM135.944 41.008C136.408 40.4 136.94 39.932 137.54 39.604C138.148 39.268 138.816 39.1 139.544 39.1C140.672 39.1 141.584 39.372 142.28 39.916C142.976 40.46 143.484 41.228 143.804 42.22C144.124 43.204 144.284 44.356 144.284 45.676C144.284 46.948 144.092 48.084 143.708 49.084C143.324 50.076 142.76 50.856 142.016 51.424C141.28 51.992 140.368 52.276 139.28 52.276C137.816 52.276 136.668 51.748 135.836 50.692L135.692 52H133.928V34.276L135.944 34.024V41.008ZM138.8 50.644C139.856 50.644 140.668 50.236 141.236 49.42C141.804 48.604 142.088 47.352 142.088 45.664C142.088 44.56 141.976 43.644 141.752 42.916C141.528 42.18 141.192 41.632 140.744 41.272C140.304 40.904 139.76 40.72 139.112 40.72C138.408 40.72 137.788 40.932 137.252 41.356C136.724 41.772 136.288 42.236 135.944 42.748V49.012C136.272 49.508 136.684 49.904 137.18 50.2C137.684 50.496 138.224 50.644 138.8 50.644ZM153.238 34.276V48.88C153.238 49.504 153.43 49.948 153.814 50.212C154.206 50.468 154.71 50.596 155.326 50.596C155.71 50.596 156.074 50.556 156.418 50.476C156.762 50.396 157.106 50.288 157.45 50.152L157.99 51.628C157.646 51.796 157.218 51.944 156.706 52.072C156.202 52.208 155.63 52.276 154.99 52.276C153.87 52.276 152.962 51.968 152.266 51.352C151.57 50.728 151.222 49.868 151.222 48.772V35.872H147.346V34.276H153.238ZM164.293 46.396C164.333 47.372 164.521 48.172 164.857 48.796C165.193 49.412 165.637 49.868 166.189 50.164C166.741 50.452 167.341 50.596 167.989 50.596C168.637 50.596 169.221 50.5 169.741 50.308C170.269 50.116 170.809 49.832 171.361 49.456L172.309 50.788C171.717 51.252 171.041 51.616 170.281 51.88C169.529 52.144 168.757 52.276 167.965 52.276C166.741 52.276 165.697 52 164.833 51.448C163.969 50.896 163.309 50.128 162.853 49.144C162.405 48.152 162.181 47.004 162.181 45.7C162.181 44.42 162.409 43.284 162.865 42.292C163.321 41.3 163.961 40.52 164.785 39.952C165.609 39.384 166.581 39.1 167.701 39.1C168.765 39.1 169.681 39.352 170.449 39.856C171.217 40.352 171.805 41.064 172.213 41.992C172.629 42.912 172.837 44.012 172.837 45.292C172.837 45.508 172.833 45.712 172.825 45.904C172.817 46.088 172.805 46.252 172.789 46.396H164.293ZM167.725 40.756C166.789 40.756 166.005 41.088 165.373 41.752C164.749 42.416 164.393 43.444 164.305 44.836H170.893C170.869 43.484 170.573 42.468 170.005 41.788C169.437 41.1 168.677 40.756 167.725 40.756ZM185.428 39.1C185.836 39.1 186.224 39.188 186.592 39.364C186.968 39.54 187.276 39.88 187.516 40.384C187.756 40.888 187.876 41.624 187.876 42.592V52H186.004V42.916C186.004 42.124 185.956 41.552 185.86 41.2C185.764 40.848 185.488 40.672 185.032 40.672C184.656 40.672 184.28 40.792 183.904 41.032C183.536 41.264 183.176 41.648 182.824 42.184V52H180.94V42.916C180.94 42.124 180.892 41.552 180.796 41.2C180.7 40.848 180.424 40.672 179.968 40.672C179.576 40.672 179.196 40.792 178.828 41.032C178.468 41.264 178.112 41.648 177.76 42.184V52H175.9V39.364H177.484L177.604 40.828C177.948 40.34 178.332 39.932 178.756 39.604C179.188 39.268 179.72 39.1 180.352 39.1C180.832 39.1 181.284 39.216 181.708 39.448C182.132 39.672 182.444 40.112 182.644 40.768C182.988 40.272 183.376 39.872 183.808 39.568C184.24 39.256 184.78 39.1 185.428 39.1ZM244.118 39.088V40.828H205.982V39.088H244.118ZM244.118 48.196V49.948H205.982V48.196H244.118ZM244.118 43.648V45.388H205.982V43.648H244.118ZM273.475 51.364C273.043 51.652 272.519 51.876 271.903 52.036C271.287 52.196 270.683 52.276 270.091 52.276C268.731 52.276 267.683 51.92 266.947 51.208C266.211 50.496 265.843 49.58 265.843 48.46V40.924H262.939V39.364H265.843V36.496L267.859 36.256V39.364H272.227L271.987 40.924H267.859V48.436C267.859 49.14 268.043 49.676 268.411 50.044C268.787 50.412 269.407 50.596 270.271 50.596C270.743 50.596 271.179 50.54 271.579 50.428C271.979 50.316 272.351 50.172 272.695 49.996L273.475 51.364ZM277.954 52V50.452H279.922V40.912H277.954V39.364H281.458L281.83 42.352C282.318 41.312 282.91 40.508 283.606 39.94C284.302 39.372 285.222 39.088 286.366 39.088C286.718 39.088 287.03 39.116 287.302 39.172C287.582 39.22 287.866 39.284 288.154 39.364L287.566 41.164C287.302 41.092 287.062 41.04 286.846 41.008C286.63 40.968 286.382 40.948 286.102 40.948C285.134 40.948 284.302 41.292 283.606 41.98C282.91 42.668 282.354 43.708 281.938 45.1V50.452H284.506V52H277.954ZM286.21 43.636V40.888L286.414 39.364H288.154L287.866 43.636H286.21ZM294.241 39.364V48.316C294.241 49.148 294.413 49.748 294.757 50.116C295.101 50.484 295.637 50.668 296.365 50.668C297.061 50.668 297.717 50.472 298.333 50.08C298.957 49.68 299.441 49.208 299.785 48.664V39.364H301.801V52H300.085L299.917 50.296C299.421 50.936 298.809 51.428 298.081 51.772C297.353 52.108 296.617 52.276 295.872 52.276C294.649 52.276 293.733 51.952 293.125 51.304C292.525 50.648 292.225 49.732 292.225 48.556V39.364H294.241ZM308.199 46.396C308.239 47.372 308.427 48.172 308.763 48.796C309.099 49.412 309.543 49.868 310.095 50.164C310.647 50.452 311.247 50.596 311.895 50.596C312.543 50.596 313.127 50.5 313.647 50.308C314.175 50.116 314.715 49.832 315.267 49.456L316.215 50.788C315.623 51.252 314.947 51.616 314.187 51.88C313.435 52.144 312.663 52.276 311.871 52.276C310.647 52.276 309.603 52 308.739 51.448C307.875 50.896 307.215 50.128 306.759 49.144C306.311 48.152 306.087 47.004 306.087 45.7C306.087 44.42 306.315 43.284 306.771 42.292C307.227 41.3 307.867 40.52 308.691 39.952C309.515 39.384 310.487 39.1 311.607 39.1C312.671 39.1 313.587 39.352 314.355 39.856C315.123 40.352 315.711 41.064 316.119 41.992C316.535 42.912 316.743 44.012 316.743 45.292C316.743 45.508 316.739 45.712 316.731 45.904C316.723 46.088 316.711 46.252 316.695 46.396H308.199ZM311.631 40.756C310.695 40.756 309.911 41.088 309.279 41.752C308.655 42.416 308.299 43.444 308.211 44.836H314.799C314.775 43.484 314.479 42.468 313.911 41.788C313.343 41.1 312.583 40.756 311.631 40.756ZM327.894 43.6C327.894 42.344 327.786 41.224 327.57 40.24C327.362 39.248 327.046 38.348 326.622 37.54C326.198 36.724 325.662 35.948 325.014 35.212C324.374 34.468 323.622 33.712 322.758 32.944L323.814 31.84C325.118 32.896 326.23 33.98 327.15 35.092C328.07 36.204 328.774 37.444 329.262 38.812C329.758 40.18 330.006 41.776 330.006 43.6C330.006 45.416 329.758 47.008 329.262 48.376C328.774 49.744 328.07 50.984 327.15 52.096C326.23 53.208 325.118 54.296 323.814 55.36L322.758 54.256C323.614 53.496 324.362 52.744 325.002 52C325.65 51.264 326.186 50.488 326.61 49.672C327.034 48.848 327.354 47.944 327.57 46.96C327.786 45.968 327.894 44.848 327.894 43.6ZM358.211 31.948V33.532C357.627 33.532 357.095 33.592 356.615 33.712C356.143 33.824 355.775 34.02 355.511 34.3C355.255 34.58 355.147 34.964 355.187 35.452L355.691 40.372C355.763 41.044 355.723 41.6 355.571 42.04C355.419 42.48 355.163 42.824 354.803 43.072C354.451 43.32 353.999 43.496 353.447 43.6C354.007 43.696 354.467 43.864 354.827 44.104C355.187 44.336 355.439 44.672 355.583 45.112C355.727 45.544 355.763 46.116 355.691 46.828L355.187 51.748C355.147 52.244 355.255 52.632 355.511 52.912C355.767 53.192 356.135 53.388 356.615 53.5C357.095 53.612 357.627 53.668 358.211 53.668V55.252C357.539 55.252 356.895 55.192 356.279 55.072C355.663 54.96 355.119 54.764 354.647 54.484C354.175 54.204 353.819 53.82 353.579 53.332C353.339 52.852 353.259 52.244 353.339 51.508L353.819 46.948C353.883 46.396 353.831 45.932 353.663 45.556C353.503 45.18 353.151 44.896 352.607 44.704C352.071 44.504 351.267 44.404 350.195 44.404V42.796C351.267 42.796 352.071 42.7 352.607 42.508C353.151 42.316 353.503 42.032 353.663 41.656C353.831 41.28 353.883 40.82 353.819 40.276L353.339 35.692C353.259 34.956 353.339 34.348 353.579 33.868C353.819 33.38 354.171 32.996 354.635 32.716C355.107 32.436 355.651 32.24 356.267 32.128C356.891 32.008 357.539 31.948 358.211 31.948ZM33.3133 83V81.452H35.2813V71.912H33.3133V70.364H36.8173L37.1893 73.352C37.6773 72.312 38.2693 71.508 38.9653 70.94C39.6613 70.372 40.5813 70.088 41.7253 70.088C42.0773 70.088 42.3893 70.116 42.6613 70.172C42.9413 70.22 43.2253 70.284 43.5133 70.364L42.9253 72.164C42.6613 72.092 42.4213 72.04 42.2053 72.008C41.9893 71.968 41.7413 71.948 41.4613 71.948C40.4933 71.948 39.6613 72.292 38.9653 72.98C38.2693 73.668 37.7133 74.708 37.2973 76.1V81.452H39.8653V83H33.3133ZM41.5693 74.636V71.888L41.7733 70.364H43.5133L43.2253 74.636H41.5693ZM49.1679 77.396C49.2079 78.372 49.3959 79.172 49.7319 79.796C50.0679 80.412 50.5119 80.868 51.0639 81.164C51.6159 81.452 52.2159 81.596 52.8639 81.596C53.5119 81.596 54.0959 81.5 54.6159 81.308C55.1439 81.116 55.6839 80.832 56.2359 80.456L57.1839 81.788C56.5919 82.252 55.9159 82.616 55.1559 82.88C54.4039 83.144 53.6319 83.276 52.8399 83.276C51.6159 83.276 50.5719 83 49.7079 82.448C48.8439 81.896 48.1839 81.128 47.7279 80.144C47.2799 79.152 47.0559 78.004 47.0559 76.7C47.0559 75.42 47.2839 74.284 47.7399 73.292C48.1959 72.3 48.8359 71.52 49.6599 70.952C50.4839 70.384 51.4559 70.1 52.5759 70.1C53.6399 70.1 54.5559 70.352 55.3239 70.856C56.0919 71.352 56.6799 72.064 57.0879 72.992C57.5039 73.912 57.7119 75.012 57.7119 76.292C57.7119 76.508 57.7079 76.712 57.6999 76.904C57.6919 77.088 57.6799 77.252 57.6639 77.396H49.1679ZM52.5999 71.756C51.6639 71.756 50.8799 72.088 50.2479 72.752C49.6239 73.416 49.2679 74.444 49.1799 75.836H55.7679C55.7439 74.484 55.4479 73.468 54.8799 72.788C54.3119 72.1 53.5519 71.756 52.5999 71.756ZM72.0065 82.364C71.5745 82.652 71.0505 82.876 70.4345 83.036C69.8185 83.196 69.2145 83.276 68.6225 83.276C67.2625 83.276 66.2145 82.92 65.4785 82.208C64.7425 81.496 64.3745 80.58 64.3745 79.46V71.924H61.4705V70.364H64.3745V67.496L66.3905 67.256V70.364H70.7585L70.5185 71.924H66.3905V79.436C66.3905 80.14 66.5745 80.676 66.9425 81.044C67.3185 81.412 67.9385 81.596 68.8025 81.596C69.2745 81.596 69.7105 81.54 70.1105 81.428C70.5105 81.316 70.8825 81.172 71.2265 80.996L72.0065 82.364ZM78.3811 70.364V79.316C78.3811 80.148 78.5531 80.748 78.8971 81.116C79.2411 81.484 79.7771 81.668 80.5051 81.668C81.2011 81.668 81.8571 81.472 82.4731 81.08C83.0971 80.68 83.5811 80.208 83.9251 79.664V70.364H85.9411V83H84.2251L84.0571 81.296C83.5611 81.936 82.9491 82.428 82.2211 82.772C81.4931 83.108 80.7571 83.276 80.0131 83.276C78.7891 83.276 77.8731 82.952 77.2651 82.304C76.6651 81.648 76.3651 80.732 76.3651 79.556V70.364H78.3811ZM90.8758 83V81.452H92.8438V71.912H90.8758V70.364H94.3798L94.7518 73.352C95.2398 72.312 95.8318 71.508 96.5278 70.94C97.2238 70.372 98.1438 70.088 99.2878 70.088C99.6398 70.088 99.9518 70.116 100.224 70.172C100.504 70.22 100.788 70.284 101.076 70.364L100.488 72.164C100.224 72.092 99.9838 72.04 99.7678 72.008C99.5518 71.968 99.3038 71.948 99.0238 71.948C98.0558 71.948 97.2238 72.292 96.5278 72.98C95.8318 73.668 95.2758 74.708 94.8598 76.1V81.452H97.4278V83H90.8758ZM99.1318 74.636V71.888L99.3358 70.364H101.076L100.788 74.636H99.1318ZM105.146 83V70.364H106.862L107.018 72.116C107.53 71.468 108.17 70.972 108.938 70.628C109.714 70.276 110.466 70.1 111.194 70.1C112.434 70.1 113.334 70.428 113.894 71.084C114.462 71.74 114.746 72.652 114.746 73.82V83H112.73V75.308C112.73 74.444 112.682 73.748 112.586 73.22C112.49 72.684 112.29 72.296 111.986 72.056C111.682 71.808 111.21 71.684 110.57 71.684C110.074 71.684 109.606 71.792 109.166 72.008C108.734 72.224 108.346 72.496 108.002 72.824C107.666 73.144 107.386 73.468 107.162 73.796V83H105.146ZM137.768 69.788C137.768 70.284 137.588 70.7 137.228 71.036C136.876 71.372 136.448 71.54 135.944 71.54C135.432 71.54 135.004 71.372 134.66 71.036C134.316 70.7 134.144 70.284 134.144 69.788C134.144 69.588 134.168 69.372 134.216 69.14C134.264 68.9 134.38 68.588 134.564 68.204L136.508 64.064H138.104L137.12 68.468C137.32 68.604 137.476 68.792 137.588 69.032C137.708 69.264 137.768 69.516 137.768 69.788ZM142.952 69.788C142.952 70.284 142.768 70.7 142.4 71.036C142.04 71.372 141.616 71.54 141.128 71.54C140.632 71.54 140.208 71.372 139.856 71.036C139.504 70.7 139.328 70.284 139.328 69.788C139.328 69.588 139.352 69.372 139.4 69.14C139.448 68.9 139.564 68.588 139.748 68.204L141.728 64.064H143.288L142.316 68.468C142.508 68.604 142.66 68.792 142.772 69.032C142.892 69.264 142.952 69.516 142.952 69.788ZM158.638 66.476L159.574 83H157.57L157.054 74.372C157.03 73.788 157.006 73.196 156.982 72.596C156.958 71.996 156.942 71.42 156.934 70.868C156.926 70.316 156.922 69.824 156.922 69.392C156.922 68.96 156.922 68.624 156.922 68.384L154.138 80.036H152.05L149.062 68.384C149.07 68.616 149.078 68.96 149.086 69.416C149.094 69.864 149.098 70.372 149.098 70.94C149.106 71.508 149.102 72.092 149.086 72.692C149.078 73.284 149.062 73.836 149.038 74.348L148.594 83H146.638L147.574 66.476H150.478L153.154 77.792L155.71 66.476H158.638ZM170.617 83V75.164H164.377V83H162.301V66.476H164.377V73.46H170.617V66.476H172.693V83H170.617ZM182.212 83.276C180.908 83.276 179.772 82.96 178.804 82.328C177.844 81.696 177.1 80.748 176.572 79.484C176.044 78.22 175.78 76.636 175.78 74.732C175.78 73.308 175.968 72.064 176.344 71C176.728 69.936 177.244 69.048 177.892 68.336C178.548 67.624 179.288 67.092 180.112 66.74C180.944 66.388 181.804 66.212 182.692 66.212C183.772 66.212 184.668 66.368 185.38 66.68C186.092 66.984 186.772 67.432 187.42 68.024L186.16 69.332C185.656 68.86 185.124 68.512 184.564 68.288C184.012 68.064 183.392 67.952 182.704 67.952C182.104 67.952 181.524 68.068 180.964 68.3C180.404 68.532 179.9 68.912 179.452 69.44C179.012 69.96 178.66 70.652 178.396 71.516C178.14 72.38 178.012 73.452 178.012 74.732C178.012 76.324 178.176 77.62 178.504 78.62C178.84 79.62 179.332 80.356 179.98 80.828C180.636 81.292 181.444 81.524 182.404 81.524C182.98 81.524 183.524 81.456 184.036 81.32C184.556 81.184 185.06 80.988 185.548 80.732V75.692H182.296L182.044 73.964H187.612V81.836C186.868 82.236 186.076 82.576 185.236 82.856C184.396 83.136 183.388 83.276 182.212 83.276ZM200.118 74.66C200.118 73.22 199.966 72.068 199.662 71.204C199.358 70.34 198.958 69.692 198.462 69.26C197.966 68.828 197.422 68.54 196.83 68.396C196.246 68.252 195.67 68.18 195.102 68.18H193.158V81.332H195.126C195.718 81.332 196.306 81.24 196.89 81.056C197.482 80.864 198.022 80.528 198.51 80.048C198.998 79.56 199.386 78.884 199.674 78.02C199.97 77.148 200.118 76.028 200.118 74.66ZM202.338 74.66C202.338 76.036 202.19 77.212 201.894 78.188C201.606 79.156 201.21 79.956 200.706 80.588C200.202 81.22 199.626 81.712 198.978 82.064C198.338 82.408 197.662 82.652 196.95 82.796C196.246 82.932 195.554 83 194.874 83H191.082V66.476H194.61C195.578 66.476 196.518 66.584 197.43 66.8C198.35 67.016 199.178 67.416 199.914 68C200.658 68.576 201.246 69.4 201.678 70.472C202.118 71.544 202.338 72.94 202.338 74.66ZM207.465 77.396C207.505 78.372 207.693 79.172 208.029 79.796C208.365 80.412 208.809 80.868 209.361 81.164C209.913 81.452 210.513 81.596 211.161 81.596C211.809 81.596 212.393 81.5 212.913 81.308C213.441 81.116 213.981 80.832 214.533 80.456L215.481 81.788C214.889 82.252 214.213 82.616 213.453 82.88C212.701 83.144 211.929 83.276 211.137 83.276C209.913 83.276 208.869 83 208.005 82.448C207.141 81.896 206.481 81.128 206.025 80.144C205.577 79.152 205.353 78.004 205.353 76.7C205.353 75.42 205.581 74.284 206.037 73.292C206.493 72.3 207.133 71.52 207.957 70.952C208.781 70.384 209.753 70.1 210.873 70.1C211.937 70.1 212.853 70.352 213.621 70.856C214.389 71.352 214.977 72.064 215.385 72.992C215.801 73.912 216.009 75.012 216.009 76.292C216.009 76.508 216.005 76.712 215.997 76.904C215.989 77.088 215.977 77.252 215.961 77.396H207.465ZM210.897 71.756C209.961 71.756 209.177 72.088 208.545 72.752C207.921 73.416 207.565 74.444 207.477 75.836H214.065C214.041 74.484 213.745 73.468 213.177 72.788C212.609 72.1 211.849 71.756 210.897 71.756ZM224.567 81.608C225.535 81.608 226.299 81.428 226.859 81.068C227.427 80.7 227.711 80.212 227.711 79.604C227.711 79.22 227.639 78.888 227.495 78.608C227.359 78.328 227.075 78.076 226.643 77.852C226.211 77.628 225.547 77.404 224.651 77.18C223.779 76.964 223.019 76.716 222.371 76.436C221.731 76.148 221.231 75.776 220.871 75.32C220.519 74.864 220.343 74.272 220.343 73.544C220.343 72.832 220.543 72.22 220.943 71.708C221.351 71.188 221.915 70.792 222.635 70.52C223.355 70.24 224.191 70.1 225.143 70.1C226.159 70.1 227.043 70.236 227.795 70.508C228.555 70.772 229.199 71.1 229.727 71.492L228.839 72.86C228.359 72.532 227.831 72.264 227.255 72.056C226.679 71.84 225.983 71.732 225.167 71.732C224.175 71.732 223.471 71.888 223.055 72.2C222.639 72.504 222.431 72.9 222.431 73.388C222.431 73.756 222.531 74.064 222.731 74.312C222.939 74.552 223.287 74.772 223.775 74.972C224.263 75.164 224.935 75.376 225.791 75.608C226.615 75.824 227.331 76.084 227.939 76.388C228.555 76.692 229.035 77.092 229.379 77.588C229.723 78.084 229.895 78.724 229.895 79.508C229.895 80.404 229.639 81.132 229.127 81.692C228.615 82.244 227.951 82.648 227.135 82.904C226.327 83.152 225.471 83.276 224.567 83.276C223.423 83.276 222.447 83.112 221.639 82.784C220.839 82.448 220.167 82.044 219.623 81.572L220.775 80.24C221.271 80.648 221.839 80.98 222.479 81.236C223.127 81.484 223.823 81.608 224.567 81.608ZM241.058 70.364V81.404H244.622V83H235.142V81.404H239.042V71.96H235.262V70.364H241.058ZM239.45 64.448C239.898 64.448 240.254 64.584 240.518 64.856C240.79 65.128 240.926 65.46 240.926 65.852C240.926 66.26 240.79 66.604 240.518 66.884C240.254 67.156 239.898 67.292 239.45 67.292C239.026 67.292 238.678 67.156 238.406 66.884C238.134 66.604 237.998 66.26 237.998 65.852C237.998 65.46 238.134 65.128 238.406 64.856C238.678 64.584 239.026 64.448 239.45 64.448ZM259.325 69.02L259.949 70.916C259.413 71.084 258.841 71.188 258.233 71.228C257.625 71.268 256.965 71.288 256.253 71.288C256.981 71.624 257.529 72.06 257.897 72.596C258.265 73.124 258.449 73.748 258.449 74.468C258.449 75.3 258.261 76.04 257.885 76.688C257.509 77.336 256.965 77.844 256.253 78.212C255.549 78.58 254.697 78.764 253.697 78.764C253.273 78.764 252.917 78.744 252.629 78.704C252.349 78.664 252.077 78.604 251.813 78.524C251.621 78.652 251.461 78.828 251.333 79.052C251.213 79.276 251.153 79.508 251.153 79.748C251.153 80.052 251.273 80.304 251.513 80.504C251.753 80.704 252.197 80.804 252.845 80.804H255.125C255.973 80.804 256.733 80.956 257.405 81.26C258.085 81.564 258.617 81.972 259.001 82.484C259.393 82.996 259.589 83.58 259.589 84.236C259.589 85.476 259.061 86.428 258.005 87.092C256.957 87.756 255.473 88.088 253.553 88.088C252.209 88.088 251.149 87.948 250.373 87.668C249.597 87.396 249.041 86.976 248.705 86.408C248.377 85.848 248.213 85.14 248.213 84.284H250.037C250.037 84.772 250.133 85.176 250.325 85.496C250.517 85.816 250.865 86.052 251.369 86.204C251.873 86.364 252.597 86.444 253.541 86.444C254.469 86.444 255.225 86.364 255.809 86.204C256.401 86.052 256.837 85.82 257.117 85.508C257.405 85.204 257.549 84.824 257.549 84.368C257.549 83.768 257.277 83.316 256.733 83.012C256.189 82.708 255.509 82.556 254.693 82.556H252.437C251.349 82.556 250.545 82.316 250.025 81.836C249.513 81.356 249.257 80.804 249.257 80.18C249.257 79.772 249.373 79.376 249.605 78.992C249.845 78.608 250.193 78.268 250.649 77.972C249.921 77.588 249.385 77.112 249.041 76.544C248.697 75.976 248.525 75.288 248.525 74.48C248.525 73.624 248.737 72.868 249.161 72.212C249.585 71.548 250.177 71.028 250.937 70.652C251.697 70.276 252.573 70.088 253.565 70.088C254.629 70.08 255.493 70.036 256.157 69.956C256.821 69.868 257.389 69.744 257.861 69.584C258.341 69.424 258.829 69.236 259.325 69.02ZM253.565 71.564C252.549 71.564 251.797 71.84 251.309 72.392C250.829 72.936 250.589 73.632 250.589 74.48C250.589 75.336 250.837 76.04 251.333 76.592C251.829 77.144 252.589 77.42 253.613 77.42C254.509 77.42 255.189 77.16 255.653 76.64C256.125 76.12 256.361 75.396 256.361 74.468C256.361 73.516 256.125 72.796 255.653 72.308C255.189 71.812 254.493 71.564 253.565 71.564ZM263.443 83V70.364H265.159L265.315 72.116C265.827 71.468 266.467 70.972 267.235 70.628C268.011 70.276 268.763 70.1 269.491 70.1C270.731 70.1 271.631 70.428 272.191 71.084C272.759 71.74 273.043 72.652 273.043 73.82V83H271.027V75.308C271.027 74.444 270.979 73.748 270.883 73.22C270.787 72.684 270.587 72.296 270.283 72.056C269.979 71.808 269.507 71.684 268.867 71.684C268.371 71.684 267.903 71.792 267.463 72.008C267.031 72.224 266.643 72.496 266.299 72.824C265.963 73.144 265.683 73.468 265.459 73.796V83H263.443ZM282.13 81.608C283.098 81.608 283.862 81.428 284.422 81.068C284.99 80.7 285.274 80.212 285.274 79.604C285.274 79.22 285.202 78.888 285.058 78.608C284.922 78.328 284.638 78.076 284.206 77.852C283.774 77.628 283.11 77.404 282.214 77.18C281.342 76.964 280.582 76.716 279.934 76.436C279.294 76.148 278.794 75.776 278.434 75.32C278.082 74.864 277.906 74.272 277.906 73.544C277.906 72.832 278.106 72.22 278.506 71.708C278.914 71.188 279.478 70.792 280.198 70.52C280.918 70.24 281.754 70.1 282.706 70.1C283.722 70.1 284.606 70.236 285.358 70.508C286.118 70.772 286.762 71.1 287.29 71.492L286.402 72.86C285.922 72.532 285.394 72.264 284.818 72.056C284.242 71.84 283.546 71.732 282.73 71.732C281.738 71.732 281.034 71.888 280.618 72.2C280.202 72.504 279.994 72.9 279.994 73.388C279.994 73.756 280.094 74.064 280.294 74.312C280.502 74.552 280.85 74.772 281.338 74.972C281.826 75.164 282.498 75.376 283.354 75.608C284.178 75.824 284.894 76.084 285.502 76.388C286.118 76.692 286.598 77.092 286.942 77.588C287.286 78.084 287.458 78.724 287.458 79.508C287.458 80.404 287.202 81.132 286.69 81.692C286.178 82.244 285.514 82.648 284.698 82.904C283.89 83.152 283.034 83.276 282.13 83.276C280.986 83.276 280.01 83.112 279.202 82.784C278.402 82.448 277.73 82.044 277.186 81.572L278.338 80.24C278.834 80.648 279.402 80.98 280.042 81.236C280.69 81.484 281.386 81.608 282.13 81.608ZM315.975 83H313.119L311.487 73.724L309.711 83H306.927L304.623 70.364H306.687L308.295 81.752L310.311 71.972H312.699L314.607 81.752L316.215 70.364H318.183L315.975 83ZM327.402 70.364V81.404H330.966V83H321.486V81.404H325.386V71.96H321.606V70.364H327.402ZM325.794 64.448C326.242 64.448 326.598 64.584 326.862 64.856C327.134 65.128 327.27 65.46 327.27 65.852C327.27 66.26 327.134 66.604 326.862 66.884C326.598 67.156 326.242 67.292 325.794 67.292C325.37 67.292 325.022 67.156 324.75 66.884C324.478 66.604 324.342 66.26 324.342 65.852C324.342 65.46 324.478 65.128 324.75 64.856C325.022 64.584 325.37 64.448 325.794 64.448ZM340.316 65.276V79.88C340.316 80.504 340.508 80.948 340.892 81.212C341.284 81.468 341.788 81.596 342.404 81.596C342.788 81.596 343.152 81.556 343.496 81.476C343.84 81.396 344.184 81.288 344.528 81.152L345.068 82.628C344.724 82.796 344.296 82.944 343.784 83.072C343.28 83.208 342.708 83.276 342.068 83.276C340.948 83.276 340.04 82.968 339.344 82.352C338.648 81.728 338.3 80.868 338.3 79.772V66.872H334.424V65.276H340.316ZM354.707 65.276V79.88C354.707 80.504 354.899 80.948 355.283 81.212C355.675 81.468 356.179 81.596 356.795 81.596C357.179 81.596 357.543 81.556 357.887 81.476C358.231 81.396 358.575 81.288 358.919 81.152L359.459 82.628C359.115 82.796 358.687 82.944 358.175 83.072C357.671 83.208 357.099 83.276 356.459 83.276C355.339 83.276 354.431 82.968 353.735 82.352C353.039 81.728 352.691 80.868 352.691 79.772V66.872H348.815V65.276H354.707ZM386.032 65.024C386.712 65.024 387.328 65.084 387.88 65.204C388.432 65.324 388.956 65.492 389.452 65.708L388.804 67.208C388.396 67.032 387.964 66.9 387.508 66.812C387.052 66.724 386.58 66.68 386.092 66.68C385.212 66.68 384.548 66.852 384.1 67.196C383.66 67.54 383.44 68.068 383.44 68.78V71.348H387.724L387.508 72.932H383.44V83H381.424V72.932H378.412V71.348H381.424V68.828C381.424 68.044 381.624 67.368 382.024 66.8C382.432 66.232 382.984 65.796 383.68 65.492C384.376 65.18 385.16 65.024 386.032 65.024ZM399.355 71.348V81.404H402.919V83H393.439V81.404H397.339V72.932H393.559V71.348H399.355ZM397.747 65.324C398.195 65.324 398.551 65.46 398.815 65.732C399.087 66.004 399.223 66.336 399.223 66.728C399.223 67.136 399.087 67.48 398.815 67.76C398.551 68.032 398.195 68.168 397.747 68.168C397.323 68.168 396.975 68.032 396.703 67.76C396.431 67.48 396.295 67.136 396.295 66.728C396.295 66.336 396.431 66.004 396.703 65.732C396.975 65.46 397.323 65.324 397.747 65.324ZM407.35 83V70.364H409.066L409.222 72.116C409.734 71.468 410.374 70.972 411.142 70.628C411.918 70.276 412.67 70.1 413.398 70.1C414.638 70.1 415.538 70.428 416.098 71.084C416.666 71.74 416.95 72.652 416.95 73.82V83H414.934V75.308C414.934 74.444 414.886 73.748 414.79 73.22C414.694 72.684 414.494 72.296 414.19 72.056C413.886 71.808 413.414 71.684 412.774 71.684C412.278 71.684 411.81 71.792 411.37 72.008C410.938 72.224 410.55 72.496 410.206 72.824C409.87 73.144 409.59 73.468 409.366 73.796V83H407.35ZM429.3 65.024L431.316 65.276V83H429.552L429.36 81.332C428.888 82.004 428.344 82.496 427.728 82.808C427.12 83.12 426.468 83.276 425.772 83.276C424.676 83.276 423.772 83 423.06 82.448C422.348 81.896 421.82 81.128 421.476 80.144C421.132 79.152 420.96 78.004 420.96 76.7C420.96 75.436 421.156 74.308 421.548 73.316C421.94 72.316 422.504 71.532 423.24 70.964C423.984 70.388 424.876 70.1 425.916 70.1C426.644 70.1 427.284 70.228 427.836 70.484C428.388 70.732 428.876 71.1 429.3 71.588V65.024ZM426.444 71.72C425.388 71.72 424.576 72.132 424.008 72.956C423.44 73.78 423.156 75.028 423.156 76.7C423.156 77.788 423.272 78.7 423.504 79.436C423.736 80.172 424.076 80.724 424.524 81.092C424.98 81.46 425.536 81.644 426.192 81.644C426.912 81.644 427.524 81.44 428.028 81.032C428.54 80.624 428.964 80.164 429.3 79.652V73.34C428.956 72.828 428.54 72.432 428.052 72.152C427.564 71.864 427.028 71.72 426.444 71.72ZM459.569 80.24C459.569 80.744 459.653 81.112 459.821 81.344C459.989 81.576 460.249 81.748 460.601 81.86L460.109 83.276C459.565 83.204 459.089 83.032 458.681 82.76C458.273 82.48 457.977 82.06 457.793 81.5C457.337 82.084 456.769 82.528 456.089 82.832C455.409 83.128 454.657 83.276 453.833 83.276C452.569 83.276 451.573 82.92 450.845 82.208C450.117 81.496 449.753 80.552 449.753 79.376C449.753 78.072 450.261 77.072 451.277 76.376C452.293 75.68 453.761 75.332 455.681 75.332H457.541V74.276C457.541 73.364 457.273 72.72 456.737 72.344C456.209 71.96 455.473 71.768 454.529 71.768C454.113 71.768 453.625 71.82 453.065 71.924C452.505 72.02 451.897 72.184 451.241 72.416L450.713 70.892C451.489 70.604 452.217 70.4 452.897 70.28C453.577 70.16 454.225 70.1 454.841 70.1C456.417 70.1 457.597 70.468 458.381 71.204C459.173 71.932 459.569 72.924 459.569 74.18V80.24ZM454.349 81.74C454.973 81.74 455.569 81.584 456.137 81.272C456.705 80.952 457.173 80.512 457.541 79.952V76.7H455.717C454.325 76.7 453.341 76.94 452.765 77.42C452.197 77.9 451.913 78.544 451.913 79.352C451.913 80.136 452.113 80.732 452.513 81.14C452.921 81.54 453.533 81.74 454.349 81.74ZM485.015 81.536C485.647 81.536 486.235 81.432 486.779 81.224C487.331 81.016 487.839 80.752 488.303 80.432L489.287 81.752C488.735 82.224 488.071 82.596 487.295 82.868C486.519 83.14 485.759 83.276 485.015 83.276C483.759 83.276 482.687 83.008 481.799 82.472C480.919 81.928 480.247 81.168 479.783 80.192C479.319 79.208 479.087 78.056 479.087 76.736C479.087 75.472 479.319 74.34 479.783 73.34C480.255 72.332 480.931 71.54 481.811 70.964C482.699 70.388 483.775 70.1 485.039 70.1C485.847 70.1 486.603 70.224 487.307 70.472C488.019 70.712 488.671 71.076 489.263 71.564L488.279 72.908C487.743 72.532 487.203 72.252 486.659 72.068C486.123 71.876 485.575 71.78 485.015 71.78C483.927 71.78 483.031 72.188 482.327 73.004C481.623 73.82 481.271 75.064 481.271 76.736C481.271 77.856 481.431 78.772 481.751 79.484C482.079 80.188 482.523 80.708 483.083 81.044C483.651 81.372 484.295 81.536 485.015 81.536ZM493.813 83V81.452H495.781V71.912H493.813V70.364H497.317L497.689 73.352C498.177 72.312 498.769 71.508 499.465 70.94C500.161 70.372 501.081 70.088 502.225 70.088C502.577 70.088 502.889 70.116 503.161 70.172C503.441 70.22 503.725 70.284 504.013 70.364L503.425 72.164C503.161 72.092 502.921 72.04 502.705 72.008C502.489 71.968 502.241 71.948 501.961 71.948C500.993 71.948 500.161 72.292 499.465 72.98C498.769 73.668 498.213 74.708 497.797 76.1V81.452H500.365V83H493.813ZM502.069 74.636V71.888L502.273 70.364H504.013L503.725 74.636H502.069ZM509.668 77.396C509.708 78.372 509.896 79.172 510.232 79.796C510.568 80.412 511.012 80.868 511.564 81.164C512.116 81.452 512.716 81.596 513.364 81.596C514.012 81.596 514.596 81.5 515.116 81.308C515.644 81.116 516.184 80.832 516.736 80.456L517.684 81.788C517.092 82.252 516.416 82.616 515.656 82.88C514.904 83.144 514.132 83.276 513.34 83.276C512.116 83.276 511.072 83 510.208 82.448C509.344 81.896 508.684 81.128 508.228 80.144C507.78 79.152 507.556 78.004 507.556 76.7C507.556 75.42 507.784 74.284 508.24 73.292C508.696 72.3 509.336 71.52 510.16 70.952C510.984 70.384 511.956 70.1 513.076 70.1C514.14 70.1 515.056 70.352 515.824 70.856C516.592 71.352 517.18 72.064 517.588 72.992C518.004 73.912 518.212 75.012 518.212 76.292C518.212 76.508 518.208 76.712 518.2 76.904C518.192 77.088 518.18 77.252 518.164 77.396H509.668ZM513.1 71.756C512.164 71.756 511.38 72.088 510.748 72.752C510.124 73.416 509.768 74.444 509.68 75.836H516.268C516.244 74.484 515.948 73.468 515.38 72.788C514.812 72.1 514.052 71.756 513.1 71.756ZM531.523 80.24C531.523 80.744 531.607 81.112 531.775 81.344C531.943 81.576 532.203 81.748 532.555 81.86L532.062 83.276C531.519 83.204 531.043 83.032 530.635 82.76C530.227 82.48 529.931 82.06 529.747 81.5C529.291 82.084 528.723 82.528 528.043 82.832C527.363 83.128 526.611 83.276 525.787 83.276C524.523 83.276 523.527 82.92 522.799 82.208C522.071 81.496 521.707 80.552 521.707 79.376C521.707 78.072 522.215 77.072 523.23 76.376C524.247 75.68 525.715 75.332 527.635 75.332H529.495V74.276C529.495 73.364 529.227 72.72 528.691 72.344C528.163 71.96 527.427 71.768 526.483 71.768C526.067 71.768 525.579 71.82 525.019 71.924C524.459 72.02 523.851 72.184 523.195 72.416L522.667 70.892C523.443 70.604 524.171 70.4 524.851 70.28C525.531 70.16 526.179 70.1 526.795 70.1C528.371 70.1 529.551 70.468 530.335 71.204C531.127 71.932 531.523 72.924 531.523 74.18V80.24ZM526.303 81.74C526.927 81.74 527.523 81.584 528.091 81.272C528.659 80.952 529.127 80.512 529.495 79.952V76.7H527.671C526.279 76.7 525.295 76.94 524.719 77.42C524.151 77.9 523.867 78.544 523.867 79.352C523.867 80.136 524.067 80.732 524.467 81.14C524.875 81.54 525.487 81.74 526.303 81.74ZM546.897 82.364C546.465 82.652 545.941 82.876 545.325 83.036C544.709 83.196 544.105 83.276 543.513 83.276C542.153 83.276 541.105 82.92 540.369 82.208C539.633 81.496 539.265 80.58 539.265 79.46V71.924H536.361V70.364H539.265V67.496L541.281 67.256V70.364H545.649L545.409 71.924H541.281V79.436C541.281 80.14 541.465 80.676 541.833 81.044C542.209 81.412 542.829 81.596 543.693 81.596C544.165 81.596 544.601 81.54 545.001 81.428C545.401 81.316 545.773 81.172 546.117 80.996L546.897 82.364ZM557.652 70.364V81.404H561.216V83H551.736V81.404H555.636V71.96H551.856V70.364H557.652ZM556.044 64.448C556.492 64.448 556.848 64.584 557.112 64.856C557.384 65.128 557.52 65.46 557.52 65.852C557.52 66.26 557.384 66.604 557.112 66.884C556.848 67.156 556.492 67.292 556.044 67.292C555.62 67.292 555.272 67.156 555 66.884C554.728 66.604 554.592 66.26 554.592 65.852C554.592 65.46 554.728 65.128 555 64.856C555.272 64.584 555.62 64.448 556.044 64.448ZM576.182 70.364L571.586 83H569.246L564.686 70.364H566.822L570.482 81.164L574.094 70.364H576.182ZM581.621 77.396C581.661 78.372 581.849 79.172 582.185 79.796C582.521 80.412 582.965 80.868 583.517 81.164C584.069 81.452 584.669 81.596 585.317 81.596C585.965 81.596 586.549 81.5 587.069 81.308C587.597 81.116 588.137 80.832 588.689 80.456L589.637 81.788C589.045 82.252 588.369 82.616 587.609 82.88C586.857 83.144 586.085 83.276 585.293 83.276C584.069 83.276 583.025 83 582.161 82.448C581.297 81.896 580.637 81.128 580.181 80.144C579.733 79.152 579.509 78.004 579.509 76.7C579.509 75.42 579.737 74.284 580.193 73.292C580.649 72.3 581.289 71.52 582.113 70.952C582.937 70.384 583.909 70.1 585.029 70.1C586.093 70.1 587.009 70.352 587.777 70.856C588.545 71.352 589.133 72.064 589.541 72.992C589.957 73.912 590.165 75.012 590.165 76.292C590.165 76.508 590.161 76.712 590.153 76.904C590.145 77.088 590.133 77.252 590.117 77.396H581.621ZM585.053 71.756C584.117 71.756 583.333 72.088 582.701 72.752C582.077 73.416 581.721 74.444 581.633 75.836H588.221C588.197 74.484 587.901 73.468 587.333 72.788C586.765 72.1 586.005 71.756 585.053 71.756ZM613.114 81.608C614.082 81.608 614.846 81.428 615.406 81.068C615.974 80.7 616.258 80.212 616.258 79.604C616.258 79.22 616.186 78.888 616.042 78.608C615.906 78.328 615.622 78.076 615.19 77.852C614.758 77.628 614.094 77.404 613.198 77.18C612.326 76.964 611.566 76.716 610.918 76.436C610.278 76.148 609.778 75.776 609.418 75.32C609.066 74.864 608.89 74.272 608.89 73.544C608.89 72.832 609.09 72.22 609.49 71.708C609.898 71.188 610.462 70.792 611.182 70.52C611.902 70.24 612.738 70.1 613.69 70.1C614.706 70.1 615.59 70.236 616.342 70.508C617.102 70.772 617.746 71.1 618.274 71.492L617.386 72.86C616.906 72.532 616.378 72.264 615.802 72.056C615.226 71.84 614.53 71.732 613.714 71.732C612.722 71.732 612.018 71.888 611.602 72.2C611.186 72.504 610.978 72.9 610.978 73.388C610.978 73.756 611.078 74.064 611.278 74.312C611.486 74.552 611.834 74.772 612.322 74.972C612.81 75.164 613.482 75.376 614.338 75.608C615.162 75.824 615.878 76.084 616.486 76.388C617.102 76.692 617.582 77.092 617.926 77.588C618.27 78.084 618.442 78.724 618.442 79.508C618.442 80.404 618.186 81.132 617.674 81.692C617.162 82.244 616.498 82.648 615.682 82.904C614.874 83.152 614.018 83.276 613.114 83.276C611.97 83.276 610.994 83.112 610.186 82.784C609.386 82.448 608.714 82.044 608.17 81.572L609.322 80.24C609.818 80.648 610.386 80.98 611.026 81.236C611.674 81.484 612.37 81.608 613.114 81.608ZM628.021 70.1C629.213 70.1 630.209 70.372 631.009 70.916C631.817 71.452 632.421 72.212 632.821 73.196C633.229 74.18 633.433 75.34 633.433 76.676C633.433 77.964 633.225 79.104 632.809 80.096C632.393 81.088 631.781 81.868 630.973 82.436C630.173 82.996 629.181 83.276 627.997 83.276C626.813 83.276 625.817 83.004 625.009 82.46C624.201 81.916 623.589 81.152 623.173 80.168C622.765 79.176 622.561 78.02 622.561 76.7C622.561 75.396 622.769 74.248 623.185 73.256C623.601 72.264 624.213 71.492 625.021 70.94C625.837 70.38 626.837 70.1 628.021 70.1ZM628.021 71.744C626.933 71.744 626.109 72.148 625.549 72.956C624.997 73.756 624.721 75.004 624.721 76.7C624.721 78.364 624.993 79.6 625.537 80.408C626.089 81.216 626.909 81.62 627.997 81.62C629.085 81.62 629.901 81.216 630.445 80.408C630.997 79.6 631.273 78.356 631.273 76.676C631.273 74.996 631.001 73.756 630.457 72.956C629.913 72.148 629.101 71.744 628.021 71.744ZM642.52 65.276V79.88C642.52 80.504 642.712 80.948 643.096 81.212C643.488 81.468 643.992 81.596 644.608 81.596C644.992 81.596 645.356 81.556 645.7 81.476C646.044 81.396 646.388 81.288 646.732 81.152L647.272 82.628C646.928 82.796 646.5 82.944 645.988 83.072C645.484 83.208 644.912 83.276 644.272 83.276C643.152 83.276 642.244 82.968 641.548 82.352C640.852 81.728 640.504 80.868 640.504 79.772V66.872H636.628V65.276H642.52ZM654.006 70.364V79.316C654.006 80.148 654.178 80.748 654.522 81.116C654.866 81.484 655.402 81.668 656.13 81.668C656.826 81.668 657.482 81.472 658.098 81.08C658.722 80.68 659.206 80.208 659.55 79.664V70.364H661.566V83H659.85L659.682 81.296C659.186 81.936 658.574 82.428 657.846 82.772C657.118 83.108 656.382 83.276 655.638 83.276C654.414 83.276 653.498 82.952 652.89 82.304C652.29 81.648 651.99 80.732 651.99 79.556V70.364H654.006ZM676.413 82.364C675.981 82.652 675.457 82.876 674.841 83.036C674.225 83.196 673.621 83.276 673.029 83.276C671.669 83.276 670.621 82.92 669.885 82.208C669.149 81.496 668.781 80.58 668.781 79.46V71.924H665.877V70.364H668.781V67.496L670.797 67.256V70.364H675.165L674.925 71.924H670.797V79.436C670.797 80.14 670.981 80.676 671.349 81.044C671.725 81.412 672.345 81.596 673.209 81.596C673.681 81.596 674.117 81.54 674.517 81.428C674.917 81.316 675.289 81.172 675.633 80.996L676.413 82.364ZM687.167 70.364V81.404H690.731V83H681.251V81.404H685.151V71.96H681.371V70.364H687.167ZM685.559 64.448C686.007 64.448 686.363 64.584 686.627 64.856C686.899 65.128 687.035 65.46 687.035 65.852C687.035 66.26 686.899 66.604 686.627 66.884C686.363 67.156 686.007 67.292 685.559 67.292C685.135 67.292 684.787 67.156 684.515 66.884C684.243 66.604 684.107 66.26 684.107 65.852C684.107 65.46 684.243 65.128 684.515 64.856C684.787 64.584 685.135 64.448 685.559 64.448ZM699.974 70.1C701.166 70.1 702.162 70.372 702.962 70.916C703.77 71.452 704.374 72.212 704.774 73.196C705.182 74.18 705.386 75.34 705.386 76.676C705.386 77.964 705.178 79.104 704.762 80.096C704.346 81.088 703.734 81.868 702.926 82.436C702.126 82.996 701.134 83.276 699.95 83.276C698.766 83.276 697.77 83.004 696.962 82.46C696.154 81.916 695.542 81.152 695.126 80.168C694.718 79.176 694.514 78.02 694.514 76.7C694.514 75.396 694.722 74.248 695.138 73.256C695.554 72.264 696.166 71.492 696.974 70.94C697.79 70.38 698.79 70.1 699.974 70.1ZM699.974 71.744C698.886 71.744 698.062 72.148 697.502 72.956C696.95 73.756 696.674 75.004 696.674 76.7C696.674 78.364 696.946 79.6 697.49 80.408C698.042 81.216 698.862 81.62 699.95 81.62C701.038 81.62 701.854 81.216 702.398 80.408C702.95 79.6 703.226 78.356 703.226 76.676C703.226 74.996 702.954 73.756 702.41 72.956C701.866 72.148 701.054 71.744 699.974 71.744ZM709.553 83V70.364H711.269L711.425 72.116C711.937 71.468 712.577 70.972 713.345 70.628C714.121 70.276 714.873 70.1 715.601 70.1C716.841 70.1 717.741 70.428 718.301 71.084C718.869 71.74 719.153 72.652 719.153 73.82V83H717.137V75.308C717.137 74.444 717.089 73.748 716.993 73.22C716.897 72.684 716.697 72.296 716.393 72.056C716.089 71.808 715.617 71.684 714.977 71.684C714.481 71.684 714.013 71.792 713.573 72.008C713.141 72.224 712.753 72.496 712.409 72.824C712.073 73.144 711.793 73.468 711.569 73.796V83H709.553ZM724.471 65.852C724.471 65.356 724.651 64.94 725.011 64.604C725.379 64.26 725.807 64.088 726.295 64.088C726.791 64.088 727.219 64.26 727.579 64.604C727.939 64.94 728.119 65.356 728.119 65.852C728.119 66.068 728.087 66.288 728.023 66.512C727.959 66.728 727.831 67.032 727.639 67.424L725.695 71.564H724.135L725.083 67.16C724.899 67.016 724.751 66.828 724.639 66.596C724.527 66.364 724.471 66.116 724.471 65.852ZM729.655 65.852C729.655 65.356 729.835 64.94 730.195 64.604C730.563 64.26 730.991 64.088 731.479 64.088C731.983 64.088 732.411 64.26 732.763 64.604C733.123 64.94 733.303 65.356 733.303 65.852C733.303 66.068 733.275 66.288 733.219 66.512C733.163 66.728 733.043 67.032 732.859 67.424L730.891 71.564H729.319L730.291 67.16C730.099 67.016 729.943 66.828 729.823 66.596C729.711 66.364 729.655 66.116 729.655 65.852ZM34.3453 93.948C35.0173 93.948 35.6613 94.008 36.2773 94.128C36.8933 94.24 37.4373 94.436 37.9093 94.716C38.3813 94.996 38.7373 95.38 38.9773 95.868C39.2253 96.348 39.3053 96.956 39.2173 97.692L38.7373 102.276C38.6733 102.82 38.7413 103.28 38.9413 103.656C39.1493 104.032 39.5253 104.316 40.0693 104.508C40.6133 104.7 41.3773 104.796 42.3613 104.796V106.404C41.3853 106.404 40.6213 106.504 40.0693 106.704C39.5253 106.896 39.1493 107.18 38.9413 107.556C38.7413 107.932 38.6733 108.396 38.7373 108.948L39.2173 113.508C39.2973 114.244 39.2173 114.852 38.9773 115.332C38.7373 115.82 38.3813 116.204 37.9093 116.484C37.4453 116.764 36.9013 116.96 36.2773 117.072C35.6613 117.192 35.0173 117.252 34.3453 117.252V115.668C34.9293 115.668 35.4573 115.612 35.9293 115.5C36.4093 115.388 36.7813 115.192 37.0453 114.912C37.3093 114.632 37.4173 114.244 37.3693 113.748L36.8653 108.828C36.7933 108.116 36.8333 107.544 36.9853 107.112C37.1373 106.672 37.4093 106.336 37.8013 106.104C38.2013 105.872 38.7253 105.712 39.3733 105.624C38.7493 105.52 38.2373 105.34 37.8372 105.084C37.4453 104.828 37.1693 104.48 37.0093 104.04C36.8493 103.6 36.8013 103.044 36.8653 102.372L37.3693 97.452C37.4173 96.964 37.3093 96.58 37.0453 96.3C36.7813 96.02 36.4133 95.824 35.9413 95.712C35.4693 95.592 34.9373 95.532 34.3453 95.532V93.948ZM5.564 124.948C6.236 124.948 6.88 125.008 7.496 125.128C8.112 125.24 8.656 125.436 9.128 125.716C9.6 125.996 9.956 126.38 10.196 126.868C10.444 127.348 10.524 127.956 10.436 128.692L9.956 133.276C9.892 133.82 9.96 134.28 10.16 134.656C10.368 135.032 10.744 135.316 11.288 135.508C11.832 135.7 12.596 135.796 13.58 135.796V137.404C12.604 137.404 11.84 137.504 11.288 137.704C10.744 137.896 10.368 138.18 10.16 138.556C9.96 138.932 9.892 139.396 9.956 139.948L10.436 144.508C10.516 145.244 10.436 145.852 10.196 146.332C9.956 146.82 9.6 147.204 9.128 147.484C8.664 147.764 8.12 147.96 7.496 148.072C6.88 148.192 6.236 148.252 5.564 148.252V146.668C6.148 146.668 6.676 146.612 7.148 146.5C7.628 146.388 8 146.192 8.264 145.912C8.528 145.632 8.636 145.244 8.588 144.748L8.084 139.828C8.012 139.116 8.052 138.544 8.204 138.112C8.356 137.672 8.628 137.336 9.02 137.104C9.42 136.872 9.944 136.712 10.592 136.624C9.968 136.52 9.456 136.34 9.056 136.084C8.664 135.828 8.388 135.48 8.228 135.04C8.068 134.6 8.02 134.044 8.084 133.372L8.588 128.452C8.636 127.964 8.528 127.58 8.264 127.3C8 127.02 7.632 126.824 7.16 126.712C6.688 126.592 6.156 126.532 5.564 126.532V124.948ZM10.124 205.536C10.756 205.536 11.344 205.432 11.888 205.224C12.44 205.016 12.948 204.752 13.412 204.432L14.396 205.752C13.844 206.224 13.18 206.596 12.404 206.868C11.628 207.14 10.868 207.276 10.124 207.276C8.868 207.276 7.796 207.008 6.908 206.472C6.028 205.928 5.356 205.168 4.892 204.192C4.428 203.208 4.196 202.056 4.196 200.736C4.196 199.472 4.428 198.34 4.892 197.34C5.364 196.332 6.04 195.54 6.92 194.964C7.808 194.388 8.884 194.1 10.148 194.1C10.956 194.1 11.712 194.224 12.416 194.472C13.128 194.712 13.78 195.076 14.372 195.564L13.388 196.908C12.852 196.532 12.312 196.252 11.768 196.068C11.232 195.876 10.684 195.78 10.124 195.78C9.036 195.78 8.14 196.188 7.436 197.004C6.732 197.82 6.38 199.064 6.38 200.736C6.38 201.856 6.54 202.772 6.86 203.484C7.188 204.188 7.632 204.708 8.192 205.044C8.76 205.372 9.404 205.536 10.124 205.536ZM23.6146 194.1C24.8066 194.1 25.8026 194.372 26.6026 194.916C27.4106 195.452 28.0146 196.212 28.4146 197.196C28.8226 198.18 29.0266 199.34 29.0266 200.676C29.0266 201.964 28.8186 203.104 28.4026 204.096C27.9866 205.088 27.3746 205.868 26.5666 206.436C25.7666 206.996 24.7746 207.276 23.5906 207.276C22.4066 207.276 21.4106 207.004 20.6026 206.46C19.7946 205.916 19.1826 205.152 18.7666 204.168C18.3586 203.176 18.1546 202.02 18.1546 200.7C18.1546 199.396 18.3626 198.248 18.7786 197.256C19.1946 196.264 19.8066 195.492 20.6146 194.94C21.4306 194.38 22.4306 194.1 23.6146 194.1ZM23.6146 195.744C22.5266 195.744 21.7026 196.148 21.1426 196.956C20.5906 197.756 20.3146 199.004 20.3146 200.7C20.3146 202.364 20.5866 203.6 21.1306 204.408C21.6826 205.216 22.5026 205.62 23.5906 205.62C24.6786 205.62 25.4946 205.216 26.0386 204.408C26.5906 203.6 26.8666 202.356 26.8666 200.676C26.8666 198.996 26.5946 197.756 26.0506 196.956C25.5066 196.148 24.6946 195.744 23.6146 195.744ZM33.1933 207V194.364H34.9093L35.0653 196.116C35.5773 195.468 36.2173 194.972 36.9853 194.628C37.7613 194.276 38.5133 194.1 39.2413 194.1C40.4813 194.1 41.3813 194.428 41.9413 195.084C42.5093 195.74 42.7933 196.652 42.7933 197.82V207H40.7773V199.308C40.7773 198.444 40.7293 197.748 40.6333 197.22C40.5373 196.684 40.3373 196.296 40.0333 196.056C39.7293 195.808 39.2573 195.684 38.6173 195.684C38.1213 195.684 37.6533 195.792 37.2133 196.008C36.7813 196.224 36.3933 196.496 36.0493 196.824C35.7133 197.144 35.4333 197.468 35.2093 197.796V207H33.1933ZM51.8799 205.608C52.8479 205.608 53.6119 205.428 54.1719 205.068C54.7399 204.7 55.0239 204.212 55.0239 203.604C55.0239 203.22 54.9519 202.888 54.8079 202.608C54.6719 202.328 54.3879 202.076 53.9559 201.852C53.5239 201.628 52.8599 201.404 51.9639 201.18C51.0919 200.964 50.3319 200.716 49.6839 200.436C49.0439 200.148 48.5439 199.776 48.1839 199.32C47.8319 198.864 47.6559 198.272 47.6559 197.544C47.6559 196.832 47.8559 196.22 48.2559 195.708C48.6639 195.188 49.2279 194.792 49.9479 194.52C50.6679 194.24 51.5039 194.1 52.4559 194.1C53.4719 194.1 54.3559 194.236 55.1079 194.508C55.8679 194.772 56.5119 195.1 57.0399 195.492L56.1519 196.86C55.6719 196.532 55.1439 196.264 54.5679 196.056C53.9919 195.84 53.2959 195.732 52.4799 195.732C51.4879 195.732 50.7839 195.888 50.3679 196.2C49.9519 196.504 49.7439 196.9 49.7439 197.388C49.7439 197.756 49.8439 198.064 50.0439 198.312C50.2519 198.552 50.5999 198.772 51.0879 198.972C51.5759 199.164 52.2479 199.376 53.1039 199.608C53.9279 199.824 54.6439 200.084 55.2519 200.388C55.8679 200.692 56.3479 201.092 56.6919 201.588C57.0359 202.084 57.2079 202.724 57.2079 203.508C57.2079 204.404 56.9519 205.132 56.4399 205.692C55.9279 206.244 55.2639 206.648 54.4479 206.904C53.6399 207.152 52.7839 207.276 51.8799 207.276C50.7359 207.276 49.7599 207.112 48.9519 206.784C48.1519 206.448 47.4799 206.044 46.9359 205.572L48.0879 204.24C48.5839 204.648 49.1519 204.98 49.7919 205.236C50.4399 205.484 51.1359 205.608 51.8799 205.608ZM66.7865 194.1C67.9785 194.1 68.9745 194.372 69.7745 194.916C70.5825 195.452 71.1865 196.212 71.5865 197.196C71.9945 198.18 72.1985 199.34 72.1985 200.676C72.1985 201.964 71.9905 203.104 71.5745 204.096C71.1585 205.088 70.5465 205.868 69.7385 206.436C68.9385 206.996 67.9465 207.276 66.7625 207.276C65.5785 207.276 64.5825 207.004 63.7745 206.46C62.9665 205.916 62.3545 205.152 61.9385 204.168C61.5305 203.176 61.3265 202.02 61.3265 200.7C61.3265 199.396 61.5345 198.248 61.9505 197.256C62.3665 196.264 62.9785 195.492 63.7865 194.94C64.6025 194.38 65.6025 194.1 66.7865 194.1ZM66.7865 195.744C65.6985 195.744 64.8745 196.148 64.3145 196.956C63.7625 197.756 63.4865 199.004 63.4865 200.7C63.4865 202.364 63.7585 203.6 64.3025 204.408C64.8545 205.216 65.6745 205.62 66.7625 205.62C67.8505 205.62 68.6665 205.216 69.2105 204.408C69.7625 203.6 70.0385 202.356 70.0385 200.676C70.0385 198.996 69.7665 197.756 69.2225 196.956C68.6785 196.148 67.8665 195.744 66.7865 195.744ZM81.2851 189.276V203.88C81.2851 204.504 81.4771 204.948 81.8611 205.212C82.2531 205.468 82.7571 205.596 83.3731 205.596C83.7571 205.596 84.1211 205.556 84.4651 205.476C84.8091 205.396 85.1531 205.288 85.4971 205.152L86.0371 206.628C85.6931 206.796 85.2651 206.944 84.7531 207.072C84.2491 207.208 83.6771 207.276 83.0371 207.276C81.9171 207.276 81.0091 206.968 80.3131 206.352C79.6171 205.728 79.2691 204.868 79.2691 203.772V190.872H75.3931V189.276H81.2851ZM92.3398 201.396C92.3798 202.372 92.5678 203.172 92.9038 203.796C93.2398 204.412 93.6838 204.868 94.2358 205.164C94.7878 205.452 95.3878 205.596 96.0358 205.596C96.6838 205.596 97.2678 205.5 97.7878 205.308C98.3158 205.116 98.8558 204.832 99.4078 204.456L100.356 205.788C99.7638 206.252 99.0878 206.616 98.3278 206.88C97.5758 207.144 96.8038 207.276 96.0118 207.276C94.7878 207.276 93.7438 207 92.8798 206.448C92.0158 205.896 91.3558 205.128 90.8998 204.144C90.4518 203.152 90.2278 202.004 90.2278 200.7C90.2278 199.42 90.4558 198.284 90.9118 197.292C91.3678 196.3 92.0078 195.52 92.8318 194.952C93.6558 194.384 94.6278 194.1 95.7478 194.1C96.8118 194.1 97.7278 194.352 98.4958 194.856C99.2638 195.352 99.8518 196.064 100.26 196.992C100.676 197.912 100.884 199.012 100.884 200.292C100.884 200.508 100.88 200.712 100.872 200.904C100.864 201.088 100.852 201.252 100.836 201.396H92.3398ZM95.7718 195.756C94.8358 195.756 94.0518 196.088 93.4198 196.752C92.7958 197.416 92.4398 198.444 92.3518 199.836H98.9398C98.9158 198.484 98.6198 197.468 98.0518 196.788C97.4838 196.1 96.7238 195.756 95.7718 195.756ZM107.81 205.152C107.81 204.76 107.902 204.408 108.086 204.096C108.27 203.776 108.518 203.524 108.83 203.34C109.15 203.148 109.51 203.052 109.91 203.052C110.318 203.052 110.682 203.148 111.002 203.34C111.322 203.524 111.574 203.776 111.758 204.096C111.942 204.408 112.034 204.76 112.034 205.152C112.034 205.544 111.942 205.904 111.758 206.232C111.574 206.552 111.322 206.808 111.002 207C110.682 207.184 110.318 207.276 109.91 207.276C109.51 207.276 109.15 207.184 108.83 207C108.518 206.808 108.27 206.552 108.086 206.232C107.902 205.904 107.81 205.544 107.81 205.152ZM124.457 189.276V203.88C124.457 204.504 124.649 204.948 125.033 205.212C125.425 205.468 125.929 205.596 126.545 205.596C126.929 205.596 127.293 205.556 127.637 205.476C127.981 205.396 128.325 205.288 128.669 205.152L129.209 206.628C128.865 206.796 128.437 206.944 127.925 207.072C127.421 207.208 126.849 207.276 126.209 207.276C125.089 207.276 124.181 206.968 123.485 206.352C122.789 205.728 122.441 204.868 122.441 203.772V190.872H118.565V189.276H124.457ZM138.74 194.1C139.932 194.1 140.928 194.372 141.728 194.916C142.536 195.452 143.14 196.212 143.54 197.196C143.948 198.18 144.152 199.34 144.152 200.676C144.152 201.964 143.944 203.104 143.528 204.096C143.112 205.088 142.5 205.868 141.692 206.436C140.892 206.996 139.9 207.276 138.716 207.276C137.532 207.276 136.536 207.004 135.728 206.46C134.92 205.916 134.308 205.152 133.892 204.168C133.484 203.176 133.28 202.02 133.28 200.7C133.28 199.396 133.488 198.248 133.904 197.256C134.32 196.264 134.932 195.492 135.74 194.94C136.556 194.38 137.556 194.1 138.74 194.1ZM138.74 195.744C137.652 195.744 136.828 196.148 136.268 196.956C135.716 197.756 135.44 199.004 135.44 200.7C135.44 202.364 135.712 203.6 136.256 204.408C136.808 205.216 137.628 205.62 138.716 205.62C139.804 205.62 140.62 205.216 141.164 204.408C141.716 203.6 141.992 202.356 141.992 200.676C141.992 198.996 141.72 197.756 141.176 196.956C140.632 196.148 139.82 195.744 138.74 195.744ZM158.59 193.02L159.214 194.916C158.678 195.084 158.106 195.188 157.498 195.228C156.89 195.268 156.23 195.288 155.518 195.288C156.246 195.624 156.794 196.06 157.162 196.596C157.53 197.124 157.714 197.748 157.714 198.468C157.714 199.3 157.526 200.04 157.15 200.688C156.774 201.336 156.23 201.844 155.518 202.212C154.814 202.58 153.962 202.764 152.962 202.764C152.538 202.764 152.182 202.744 151.894 202.704C151.614 202.664 151.342 202.604 151.078 202.524C150.886 202.652 150.726 202.828 150.598 203.052C150.478 203.276 150.418 203.508 150.418 203.748C150.418 204.052 150.538 204.304 150.778 204.504C151.018 204.704 151.462 204.804 152.11 204.804H154.39C155.238 204.804 155.998 204.956 156.67 205.26C157.35 205.564 157.882 205.972 158.266 206.484C158.658 206.996 158.854 207.58 158.854 208.236C158.854 209.476 158.326 210.428 157.27 211.092C156.222 211.756 154.738 212.088 152.818 212.088C151.474 212.088 150.414 211.948 149.638 211.668C148.862 211.396 148.306 210.976 147.97 210.408C147.642 209.848 147.478 209.14 147.478 208.284H149.302C149.302 208.772 149.398 209.176 149.59 209.496C149.782 209.816 150.13 210.052 150.634 210.204C151.138 210.364 151.862 210.444 152.806 210.444C153.734 210.444 154.49 210.364 155.074 210.204C155.666 210.052 156.102 209.82 156.382 209.508C156.67 209.204 156.814 208.824 156.814 208.368C156.814 207.768 156.542 207.316 155.998 207.012C155.454 206.708 154.774 206.556 153.958 206.556H151.702C150.614 206.556 149.81 206.316 149.29 205.836C148.778 205.356 148.522 204.804 148.522 204.18C148.522 203.772 148.638 203.376 148.87 202.992C149.11 202.608 149.458 202.268 149.914 201.972C149.186 201.588 148.65 201.112 148.306 200.544C147.962 199.976 147.79 199.288 147.79 198.48C147.79 197.624 148.002 196.868 148.426 196.212C148.85 195.548 149.442 195.028 150.202 194.652C150.962 194.276 151.838 194.088 152.83 194.088C153.894 194.08 154.758 194.036 155.422 193.956C156.086 193.868 156.654 193.744 157.126 193.584C157.606 193.424 158.094 193.236 158.59 193.02ZM152.83 195.564C151.814 195.564 151.062 195.84 150.574 196.392C150.094 196.936 149.854 197.632 149.854 198.48C149.854 199.336 150.102 200.04 150.598 200.592C151.094 201.144 151.854 201.42 152.878 201.42C153.774 201.42 154.454 201.16 154.918 200.64C155.39 200.12 155.626 199.396 155.626 198.468C155.626 197.516 155.39 196.796 154.918 196.308C154.454 195.812 153.758 195.564 152.83 195.564ZM165.397 198.6C165.397 199.848 165.505 200.968 165.721 201.96C165.937 202.944 166.257 203.848 166.681 204.672C167.105 205.488 167.637 206.264 168.277 207C168.925 207.744 169.677 208.496 170.533 209.256L169.477 210.36C168.181 209.296 167.069 208.208 166.141 207.096C165.221 205.984 164.513 204.744 164.017 203.376C163.529 202.008 163.285 200.416 163.285 198.6C163.285 196.776 163.529 195.18 164.017 193.812C164.513 192.444 165.221 191.204 166.141 190.092C167.069 188.98 168.181 187.896 169.477 186.84L170.533 187.944C169.669 188.712 168.913 189.468 168.265 190.212C167.625 190.948 167.093 191.724 166.669 192.54C166.245 193.348 165.925 194.248 165.709 195.24C165.501 196.224 165.397 197.344 165.397 198.6ZM187.42 190.476L188.356 207H186.352L185.836 198.372C185.812 197.788 185.788 197.196 185.764 196.596C185.74 195.996 185.724 195.42 185.716 194.868C185.708 194.316 185.704 193.824 185.704 193.392C185.704 192.96 185.704 192.624 185.704 192.384L182.92 204.036H180.832L177.844 192.384C177.852 192.616 177.86 192.96 177.868 193.416C177.876 193.864 177.88 194.372 177.88 194.94C177.888 195.508 177.884 196.092 177.868 196.692C177.86 197.284 177.844 197.836 177.82 198.348L177.376 207H175.42L176.356 190.476H179.26L181.936 201.792L184.492 190.476H187.42ZM199.398 207V199.164H193.158V207H191.082V190.476H193.158V197.46H199.398V190.476H201.474V207H199.398ZM210.993 207.276C209.689 207.276 208.553 206.96 207.585 206.328C206.625 205.696 205.881 204.748 205.353 203.484C204.825 202.22 204.561 200.636 204.561 198.732C204.561 197.308 204.749 196.064 205.125 195C205.509 193.936 206.025 193.048 206.673 192.336C207.329 191.624 208.069 191.092 208.893 190.74C209.725 190.388 210.585 190.212 211.473 190.212C212.553 190.212 213.449 190.368 214.161 190.68C214.873 190.984 215.553 191.432 216.201 192.024L214.941 193.332C214.437 192.86 213.905 192.512 213.345 192.288C212.793 192.064 212.173 191.952 211.485 191.952C210.885 191.952 210.305 192.068 209.745 192.3C209.185 192.532 208.681 192.912 208.233 193.44C207.793 193.96 207.441 194.652 207.177 195.516C206.921 196.38 206.793 197.452 206.793 198.732C206.793 200.324 206.957 201.62 207.285 202.62C207.621 203.62 208.113 204.356 208.761 204.828C209.417 205.292 210.225 205.524 211.185 205.524C211.761 205.524 212.305 205.456 212.817 205.32C213.337 205.184 213.841 204.988 214.329 204.732V199.692H211.077L210.825 197.964H216.393V205.836C215.649 206.236 214.857 206.576 214.017 206.856C213.177 207.136 212.169 207.276 210.993 207.276ZM228.899 198.66C228.899 197.22 228.747 196.068 228.443 195.204C228.139 194.34 227.739 193.692 227.243 193.26C226.747 192.828 226.203 192.54 225.611 192.396C225.027 192.252 224.451 192.18 223.883 192.18H221.939V205.332H223.907C224.499 205.332 225.087 205.24 225.671 205.056C226.263 204.864 226.803 204.528 227.291 204.048C227.779 203.56 228.167 202.884 228.455 202.02C228.751 201.148 228.899 200.028 228.899 198.66ZM231.119 198.66C231.119 200.036 230.971 201.212 230.675 202.188C230.387 203.156 229.991 203.956 229.487 204.588C228.983 205.22 228.407 205.712 227.759 206.064C227.119 206.408 226.443 206.652 225.731 206.796C225.027 206.932 224.335 207 223.655 207H219.863V190.476H223.391C224.359 190.476 225.299 190.584 226.211 190.8C227.131 191.016 227.959 191.416 228.695 192C229.439 192.576 230.027 193.4 230.459 194.472C230.899 195.544 231.119 196.94 231.119 198.66ZM236.246 201.396C236.286 202.372 236.474 203.172 236.81 203.796C237.146 204.412 237.59 204.868 238.142 205.164C238.694 205.452 239.294 205.596 239.942 205.596C240.59 205.596 241.174 205.5 241.694 205.308C242.222 205.116 242.762 204.832 243.314 204.456L244.262 205.788C243.67 206.252 242.994 206.616 242.234 206.88C241.482 207.144 240.71 207.276 239.918 207.276C238.694 207.276 237.65 207 236.786 206.448C235.922 205.896 235.262 205.128 234.806 204.144C234.358 203.152 234.134 202.004 234.134 200.7C234.134 199.42 234.362 198.284 234.818 197.292C235.274 196.3 235.914 195.52 236.738 194.952C237.562 194.384 238.534 194.1 239.654 194.1C240.718 194.1 241.634 194.352 242.402 194.856C243.17 195.352 243.758 196.064 244.166 196.992C244.582 197.912 244.79 199.012 244.79 200.292C244.79 200.508 244.786 200.712 244.778 200.904C244.77 201.088 244.758 201.252 244.742 201.396H236.246ZM239.678 195.756C238.742 195.756 237.958 196.088 237.326 196.752C236.702 197.416 236.346 198.444 236.258 199.836H242.846C242.822 198.484 242.526 197.468 241.958 196.788C241.39 196.1 240.63 195.756 239.678 195.756ZM253.349 205.608C254.317 205.608 255.081 205.428 255.641 205.068C256.209 204.7 256.493 204.212 256.493 203.604C256.493 203.22 256.421 202.888 256.277 202.608C256.141 202.328 255.857 202.076 255.425 201.852C254.993 201.628 254.329 201.404 253.433 201.18C252.561 200.964 251.801 200.716 251.153 200.436C250.513 200.148 250.013 199.776 249.653 199.32C249.301 198.864 249.125 198.272 249.125 197.544C249.125 196.832 249.325 196.22 249.725 195.708C250.133 195.188 250.697 194.792 251.417 194.52C252.137 194.24 252.973 194.1 253.925 194.1C254.941 194.1 255.825 194.236 256.577 194.508C257.337 194.772 257.981 195.1 258.509 195.492L257.621 196.86C257.141 196.532 256.613 196.264 256.037 196.056C255.461 195.84 254.765 195.732 253.949 195.732C252.957 195.732 252.253 195.888 251.837 196.2C251.421 196.504 251.213 196.9 251.213 197.388C251.213 197.756 251.313 198.064 251.513 198.312C251.721 198.552 252.069 198.772 252.557 198.972C253.045 199.164 253.717 199.376 254.573 199.608C255.397 199.824 256.113 200.084 256.721 200.388C257.337 200.692 257.817 201.092 258.161 201.588C258.505 202.084 258.677 202.724 258.677 203.508C258.677 204.404 258.421 205.132 257.909 205.692C257.397 206.244 256.733 206.648 255.917 206.904C255.109 207.152 254.253 207.276 253.349 207.276C252.205 207.276 251.229 207.112 250.421 206.784C249.621 206.448 248.949 206.044 248.405 205.572L249.557 204.24C250.053 204.648 250.621 204.98 251.261 205.236C251.909 205.484 252.605 205.608 253.349 205.608ZM273.715 193.02L274.339 194.916C273.803 195.084 273.231 195.188 272.623 195.228C272.015 195.268 271.355 195.288 270.643 195.288C271.371 195.624 271.919 196.06 272.287 196.596C272.655 197.124 272.839 197.748 272.839 198.468C272.839 199.3 272.651 200.04 272.275 200.688C271.899 201.336 271.355 201.844 270.643 202.212C269.939 202.58 269.087 202.764 268.087 202.764C267.663 202.764 267.307 202.744 267.019 202.704C266.739 202.664 266.467 202.604 266.203 202.524C266.011 202.652 265.851 202.828 265.723 203.052C265.603 203.276 265.543 203.508 265.543 203.748C265.543 204.052 265.663 204.304 265.903 204.504C266.143 204.704 266.587 204.804 267.235 204.804H269.515C270.363 204.804 271.123 204.956 271.795 205.26C272.475 205.564 273.007 205.972 273.391 206.484C273.783 206.996 273.979 207.58 273.979 208.236C273.979 209.476 273.451 210.428 272.395 211.092C271.347 211.756 269.863 212.088 267.943 212.088C266.599 212.088 265.539 211.948 264.763 211.668C263.987 211.396 263.431 210.976 263.095 210.408C262.767 209.848 262.603 209.14 262.603 208.284H264.427C264.427 208.772 264.523 209.176 264.715 209.496C264.907 209.816 265.255 210.052 265.759 210.204C266.263 210.364 266.987 210.444 267.931 210.444C268.859 210.444 269.615 210.364 270.199 210.204C270.791 210.052 271.227 209.82 271.507 209.508C271.795 209.204 271.939 208.824 271.939 208.368C271.939 207.768 271.667 207.316 271.123 207.012C270.579 206.708 269.899 206.556 269.083 206.556H266.827C265.739 206.556 264.935 206.316 264.415 205.836C263.903 205.356 263.647 204.804 263.647 204.18C263.647 203.772 263.763 203.376 263.995 202.992C264.235 202.608 264.583 202.268 265.039 201.972C264.311 201.588 263.775 201.112 263.431 200.544C263.087 199.976 262.915 199.288 262.915 198.48C262.915 197.624 263.127 196.868 263.551 196.212C263.975 195.548 264.567 195.028 265.327 194.652C266.087 194.276 266.963 194.088 267.955 194.088C269.019 194.08 269.883 194.036 270.547 193.956C271.211 193.868 271.779 193.744 272.251 193.584C272.731 193.424 273.219 193.236 273.715 193.02ZM267.955 195.564C266.939 195.564 266.187 195.84 265.699 196.392C265.219 196.936 264.979 197.632 264.979 198.48C264.979 199.336 265.227 200.04 265.723 200.592C266.219 201.144 266.979 201.42 268.003 201.42C268.899 201.42 269.579 201.16 270.043 200.64C270.515 200.12 270.751 199.396 270.751 198.468C270.751 197.516 270.515 196.796 270.043 196.308C269.579 195.812 268.883 195.564 267.955 195.564ZM284.23 194.364V205.404H287.794V207H278.314V205.404H282.214V195.96H278.434V194.364H284.23ZM282.622 188.448C283.07 188.448 283.426 188.584 283.69 188.856C283.962 189.128 284.098 189.46 284.098 189.852C284.098 190.26 283.962 190.604 283.69 190.884C283.426 191.156 283.07 191.292 282.622 191.292C282.198 191.292 281.85 191.156 281.578 190.884C281.306 190.604 281.17 190.26 281.17 189.852C281.17 189.46 281.306 189.128 281.578 188.856C281.85 188.584 282.198 188.448 282.622 188.448ZM292.225 207V194.364H293.941L294.097 196.116C294.609 195.468 295.249 194.972 296.017 194.628C296.793 194.276 297.545 194.1 298.273 194.1C299.513 194.1 300.413 194.428 300.973 195.084C301.541 195.74 301.825 196.652 301.825 197.82V207H299.809V199.308C299.809 198.444 299.761 197.748 299.665 197.22C299.569 196.684 299.369 196.296 299.065 196.056C298.761 195.808 298.289 195.684 297.649 195.684C297.153 195.684 296.685 195.792 296.245 196.008C295.813 196.224 295.425 196.496 295.081 196.824C294.745 197.144 294.465 197.468 294.241 197.796V207H292.225ZM310.911 205.608C311.879 205.608 312.643 205.428 313.203 205.068C313.771 204.7 314.055 204.212 314.055 203.604C314.055 203.22 313.983 202.888 313.839 202.608C313.703 202.328 313.419 202.076 312.987 201.852C312.555 201.628 311.891 201.404 310.995 201.18C310.123 200.964 309.363 200.716 308.715 200.436C308.075 200.148 307.575 199.776 307.215 199.32C306.863 198.864 306.687 198.272 306.687 197.544C306.687 196.832 306.887 196.22 307.287 195.708C307.695 195.188 308.259 194.792 308.979 194.52C309.699 194.24 310.535 194.1 311.487 194.1C312.503 194.1 313.387 194.236 314.139 194.508C314.899 194.772 315.543 195.1 316.071 195.492L315.183 196.86C314.703 196.532 314.175 196.264 313.599 196.056C313.023 195.84 312.327 195.732 311.511 195.732C310.519 195.732 309.815 195.888 309.399 196.2C308.983 196.504 308.775 196.9 308.775 197.388C308.775 197.756 308.875 198.064 309.075 198.312C309.283 198.552 309.631 198.772 310.119 198.972C310.607 199.164 311.279 199.376 312.135 199.608C312.959 199.824 313.675 200.084 314.283 200.388C314.899 200.692 315.379 201.092 315.723 201.588C316.067 202.084 316.239 202.724 316.239 203.508C316.239 204.404 315.983 205.132 315.471 205.692C314.959 206.244 314.295 206.648 313.479 206.904C312.671 207.152 311.815 207.276 310.911 207.276C309.767 207.276 308.791 207.112 307.983 206.784C307.183 206.448 306.511 206.044 305.967 205.572L307.119 204.24C307.615 204.648 308.183 204.98 308.823 205.236C309.471 205.484 310.167 205.608 310.911 205.608ZM323.694 198.6C323.694 199.848 323.802 200.968 324.018 201.96C324.234 202.944 324.554 203.848 324.978 204.672C325.402 205.488 325.934 206.264 326.574 207C327.222 207.744 327.974 208.496 328.83 209.256L327.774 210.36C326.478 209.296 325.366 208.208 324.438 207.096C323.518 205.984 322.81 204.744 322.314 203.376C321.826 202.008 321.582 200.416 321.582 198.6C321.582 196.776 321.826 195.18 322.314 193.812C322.81 192.444 323.518 191.204 324.438 190.092C325.366 188.98 326.478 187.896 327.774 186.84L328.83 187.944C327.966 188.712 327.21 189.468 326.562 190.212C325.922 190.948 325.39 191.724 324.966 192.54C324.542 193.348 324.222 194.248 324.006 195.24C323.798 196.224 323.694 197.344 323.694 198.6ZM345.428 206.364C344.996 206.652 344.472 206.876 343.856 207.036C343.24 207.196 342.636 207.276 342.044 207.276C340.684 207.276 339.636 206.92 338.9 206.208C338.164 205.496 337.796 204.58 337.796 203.46V195.924H334.892V194.364H337.796V191.496L339.812 191.256V194.364H344.18L343.94 195.924H339.812V203.436C339.812 204.14 339.996 204.676 340.364 205.044C340.74 205.412 341.36 205.596 342.224 205.596C342.696 205.596 343.132 205.54 343.532 205.428C343.932 205.316 344.304 205.172 344.648 204.996L345.428 206.364ZM349.907 207V205.452H351.875V195.912H349.907V194.364H353.411L353.783 197.352C354.271 196.312 354.863 195.508 355.559 194.94C356.255 194.372 357.175 194.088 358.319 194.088C358.671 194.088 358.983 194.116 359.255 194.172C359.535 194.22 359.819 194.284 360.107 194.364L359.519 196.164C359.255 196.092 359.015 196.04 358.799 196.008C358.583 195.968 358.335 195.948 358.055 195.948C357.087 195.948 356.255 196.292 355.559 196.98C354.863 197.668 354.307 198.708 353.891 200.1V205.452H356.459V207H349.907ZM358.163 198.636V195.888L358.367 194.364H360.107L359.819 198.636H358.163ZM366.194 194.364V203.316C366.194 204.148 366.366 204.748 366.71 205.116C367.054 205.484 367.59 205.668 368.318 205.668C369.014 205.668 369.67 205.472 370.286 205.08C370.91 204.68 371.394 204.208 371.738 203.664V194.364H373.754V207H372.038L371.87 205.296C371.374 205.936 370.762 206.428 370.034 206.772C369.306 207.108 368.57 207.276 367.826 207.276C366.602 207.276 365.686 206.952 365.078 206.304C364.478 205.648 364.178 204.732 364.178 203.556V194.364H366.194ZM380.152 201.396C380.192 202.372 380.38 203.172 380.716 203.796C381.052 204.412 381.496 204.868 382.048 205.164C382.6 205.452 383.2 205.596 383.848 205.596C384.496 205.596 385.08 205.5 385.6 205.308C386.128 205.116 386.668 204.832 387.22 204.456L388.168 205.788C387.576 206.252 386.9 206.616 386.14 206.88C385.388 207.144 384.616 207.276 383.824 207.276C382.6 207.276 381.556 207 380.692 206.448C379.828 205.896 379.168 205.128 378.712 204.144C378.264 203.152 378.04 202.004 378.04 200.7C378.04 199.42 378.268 198.284 378.724 197.292C379.18 196.3 379.82 195.52 380.644 194.952C381.468 194.384 382.44 194.1 383.56 194.1C384.624 194.1 385.54 194.352 386.308 194.856C387.076 195.352 387.664 196.064 388.072 196.992C388.488 197.912 388.696 199.012 388.696 200.292C388.696 200.508 388.692 200.712 388.684 200.904C388.676 201.088 388.664 201.252 388.648 201.396H380.152ZM383.584 195.756C382.648 195.756 381.864 196.088 381.232 196.752C380.608 197.416 380.252 198.444 380.164 199.836H386.752C386.728 198.484 386.432 197.468 385.864 196.788C385.296 196.1 384.536 195.756 383.584 195.756ZM399.847 198.6C399.847 197.344 399.739 196.224 399.523 195.24C399.315 194.248 398.999 193.348 398.575 192.54C398.151 191.724 397.615 190.948 396.967 190.212C396.327 189.468 395.575 188.712 394.711 187.944L395.767 186.84C397.071 187.896 398.183 188.98 399.103 190.092C400.023 191.204 400.727 192.444 401.215 193.812C401.711 195.18 401.959 196.776 401.959 198.6C401.959 200.416 401.711 202.008 401.215 203.376C400.727 204.744 400.023 205.984 399.103 207.096C398.183 208.208 397.071 209.296 395.767 210.36L394.711 209.256C395.567 208.496 396.315 207.744 396.955 207C397.603 206.264 398.139 205.488 398.563 204.672C398.987 203.848 399.307 202.944 399.523 201.96C399.739 200.968 399.847 199.848 399.847 198.6ZM414.238 198.6C414.238 197.344 414.13 196.224 413.914 195.24C413.706 194.248 413.39 193.348 412.966 192.54C412.542 191.724 412.006 190.948 411.358 190.212C410.718 189.468 409.966 188.712 409.102 187.944L410.158 186.84C411.462 187.896 412.574 188.98 413.494 190.092C414.414 191.204 415.118 192.444 415.606 193.812C416.102 195.18 416.35 196.776 416.35 198.6C416.35 200.416 416.102 202.008 415.606 203.376C415.118 204.744 414.414 205.984 413.494 207.096C412.574 208.208 411.462 209.296 410.158 210.36L409.102 209.256C409.958 208.496 410.706 207.744 411.346 207C411.994 206.264 412.53 205.488 412.954 204.672C413.378 203.848 413.698 202.944 413.914 201.96C414.13 200.968 414.238 199.848 414.238 198.6Z" fill="white"/>
</g>
<defs>
<filter id="filter0_d_211_14" x="0.195984" y="0.84" width="737.107" height="219.248" filterUnits="userSpaceOnUse" color-interpolation-filters="sRGB">
<feFlood flood-opacity="0" result="BackgroundImageFix"/>
<feColorMatrix in="SourceAlpha" type="matrix" values="0 0 0 0 0 0 0 0 0 0 0 0 0 0 0 0 0 0 127 0" result="hardAlpha"/>
<feOffset dy="4"/>
<feGaussianBlur stdDeviation="2"/>
<feComposite in2="hardAlpha" operator="out"/>
<feColorMatrix type="matrix" values="0 0 0 0 0 0 0 0 0 0 0 0 0 0 0 0 0 0 0.25 0"/>
<feBlend mode="normal" in2="BackgroundImageFix" result="effect1_dropShadow_211_14"/>
<feBlend mode="normal" in="SourceGraphic" in2="effect1_dropShadow_211_14" result="shape"/>
</filter>
</defs>
</svg>
