<?xml version="1.0" encoding="utf-8"?>
<!-- Generator: Adobe Illustrator 26.5.0, SVG Export Plug-In . SVG Version: 6.00 Build 0)  -->
<svg version="1.1" id="Layer_1" xmlns="http://www.w3.org/2000/svg" xmlns:xlink="http://www.w3.org/1999/xlink" x="100px" y="100px" width='150px' height='150px'
	 viewBox="0 0 512 512" style="enable-background:new 0 0 512 512;" xml:space="preserve">
<style type="text/css">
	.st0{fill:#423426;}
</style>
<g id="XMLID_1_">
	<path id="XMLID_2_" class="st0" d="M188.44,193.97c17.82-0.14,36.05,5.05,49.94,16.55c7.15,5.75,12.77,12.91,17.68,20.62
		c8.7-14.17,21.46-26.23,37.31-31.98c19.22-7.15,40.96-6.73,60.04,0.42c16.69,6.17,31.42,16.83,44.61,28.48
		c10.38,9.12,20.06,19.22,30.72,28.06c5.61,4.63,11.64,8.84,18.66,11.22c9.26,3.09,20.06,0.14,26.65-6.87
		c6.17-6.59,5.75-18.1-0.98-24.27c-4.21-3.65-11.64-2.95-14.59,1.96c-2.67,3.93-1.12,8.7,0.84,12.48
		c-5.47-4.07-11.08-9.68-10.94-16.97c-1.12-8.42,5.19-15.85,12.62-18.8c14.59-5.89,32.97-0.84,42.22,12.06
		c8.84,12.06,9.54,27.92,8,42.22c-1.82,13.61-9.54,26.37-20.76,34.23c-15.85,11.36-35.91,14.87-55.13,14.59
		c-18.38-0.56-36.61-4.63-53.59-11.5c-28.48-11.5-55.13-27.21-84.59-36.47c-9.82-3.79-20.2-5.89-30.58-6.45
		c-8.28,0-16.13-0.42-23.99,0.14c-9.54,0.98-19.08,2.95-28.06,6.45c-29.88,9.26-56.95,25.53-85.99,37.03
		c-24.55,9.54-51.62,14.03-77.71,8.7c-14.59-2.95-29.04-9.4-38.86-20.9c-8.42-9.68-12.48-22.73-12.06-35.63
		c-0.42-12.06,2.24-24.83,10.1-34.23c7.43-8.84,19.36-13.47,30.86-12.48c7.43,0.28,14.87,3.51,19.5,9.54
		c3.65,4.77,3.79,11.22,2.24,16.69c-1.96,4.91-5.89,8.84-10.1,11.78c2.24-3.65,3.51-8.56,0.98-12.48
		c-3.23-5.19-11.08-5.61-15.15-1.4c-5.05,5.33-6.17,13.89-2.81,20.34c3.79,6.73,11.36,10.66,18.94,11.36
		c11.22,0.98,21.04-6.03,29.32-12.77c17.11-14.73,32.54-31.56,51.48-44.05C150.99,200.99,169.5,193.83,188.44,193.97z"/>
</g>
</svg>
